<?xml version="1.0" encoding="UTF-8"?>
<svg id="Ebene_1" xmlns="http://www.w3.org/2000/svg" version="1.1" viewBox="0 0 139 116">
  <!-- Generator: Adobe Illustrator 30.2.1, SVG Export Plug-In . SVG Version: 2.1.1 Build 1)  -->
  <defs>
    <style>
      .st0 {
        fill: #fff;
      }

      .st1 {
        fill: #489cf0;
      }

      .st2 {
        fill: #3595f0;
      }
    </style>
  </defs>
  <path class="st1" d="M123.8,45.9c0,14.2-11.5,25.7-25.7,25.7s-10.1-1.6-14.1-4.2c-.6-4.1-2.2-8-4.8-11.4-1.8-2.3-4-4.4-6.5-5.9-.2-1.3-.3-2.7-.3-4.1,0-14.2,11.5-25.7,25.7-25.7s25.7,11.5,25.7,25.7Z"/>
  <path class="st2" d="M64.7,73.7c1.4,0,2.6-1.2,2.6-2.6s-1.2-2.6-2.6-2.6-2.6,1.2-2.6,2.6,1.2,2.6,2.6,2.6Z"/>
  <path class="st1" d="M82.5,77.4c0-6.3-2-12.3-5.8-17.3-3.7-4.8-8.8-8.4-14.5-10.1-.7.6-1.4,1.2-2.2,1.7,2.1,2.3,6.1,9.1,6.7,13,2.8.8,4.8,3.4,4.8,6.4s-3,6.7-6.7,6.7-6.6-3-6.6-6.7,1.8-5.3,4.4-6.2c-.6-3.2-4.6-9.4-6.1-11-4.2,2.2-9,3.4-13.8,3.4s-9.2-1.1-13.3-3.2c-1.6,2.6-4.2,7.4-4.6,13.3,5.3,1,9.2,5.7,9.2,11.1v7.3c0,1.1-.9,2-2,2h-5.1c-1.1,0-2-.9-2-2s.9-2,2-2h3v-4.9c0-3.6-2.5-7-6.1-7.6-4.6-.8-8.6,2.8-8.6,7.2v5.3h3.1c1.1,0,2,.9,2,2s-.9,2-2,2h-5.1c-1.1,0-2-.9-2-2v-7.3c0-5.5,4.1-10.3,9.5-11.2.4-6.4,3-11.8,5.1-15.3-.9-.6-1.8-1.3-2.7-2.1-5.7,1.7-10.9,5.3-14.5,10.1-3.8,5-5.8,11-5.8,17.3v20.3h79.8v-20.3Z"/>
  <path class="st1" d="M42.5,50c12.5,0,22.6-10.2,22.6-22.6S55,4.7,42.5,4.7s-22.6,10.2-22.6,22.6,10.2,22.6,22.6,22.6Z"/>
  <path class="st1" d="M132.1,102.1H6.9c-2.4,0-4.3,2.1-4.3,4.6s1.9,4.6,4.3,4.6h125.2c2.4,0,4.3-2.1,4.3-4.6s-1.9-4.6-4.3-4.6Z"/>
  <path class="st0" d="M98.7,41.6c2.8,0,5.1.8,6.8,2.4,1.7,1.6,2.5,3.8,2.5,6.5s-1,5.8-3,7.6-4.9,2.7-8.7,2.7-5.9-.5-7.9-1.6v-5.4c1.1.6,2.3,1,3.7,1.4,1.4.4,2.7.5,4,.5,3.8,0,5.7-1.6,5.7-4.7s-2-4.4-5.9-4.4-1.5,0-2.3.2-1.6.3-2.1.5l-2.5-1.3,1.1-15h15.9v5.3h-10.5l-.5,5.8h.7c.8-.3,1.8-.4,3-.4Z"/>
  <path class="st1" d="M74.3,4.9c1.2,4.3,3.9,6.9,8.4,8.2-4.6,1.3-7.5,3.9-8.6,8.4-1.3-4.3-3.9-7.2-8.3-8.3,1.3-.7,2.6-1.2,3.8-1.9,2.3-1.5,3.7-3.6,4.3-6.3,0,0,.1-.2.2-.2,0,0,.1,0,.2.2Z"/>
  <path class="st1" d="M115.5,85.9c.6-1.1,1.1-2.1,1.7-3.3,1,3.7,3.4,6,6.9,6.8-1.5.9-3.2,1.5-4.4,2.7-1.2,1.2-1.9,3-2.8,4.5-1-3.5-3.2-6.1-7.3-7,2.4-.9,4.5-1.6,5.8-3.8Z"/>
  <path class="st1" d="M135.3,17c-3.4,1.1-4.1,1.8-6.3,6.5-.9-3.5-2.9-5.8-6.4-6.7,3.4-1.1,5.6-3.2,6.5-6.9,1.1,3.7,3.2,6,7,6.8-.4.2-.6.3-.9.4Z"/>
  <path class="st1" d="M98.1,15.1c-17,0-30.8,13.8-30.8,30.8s0,1.8.1,2.6c.7.3,1.4.6,2.1,1-.2-1.2-.2-2.4-.2-3.7,0-15.9,12.9-28.8,28.8-28.8s28.8,12.9,28.8,28.8-12.9,28.8-28.8,28.8-9.5-1.2-13.6-3.4c0,.8.2,1.5.2,2.3,4,2,8.6,3.1,13.4,3.1,17,0,30.8-13.8,30.8-30.8s-13.8-30.8-30.8-30.8Z"/>
  <g>
    <circle class="st1" cx="119.4" cy="29" r="8.8"/>
    <path class="st0" d="M119.4,38.6c-5.2,0-9.5-4.3-9.5-9.5s4.3-9.5,9.5-9.5,9.5,4.3,9.5,9.5-4.3,9.5-9.5,9.5ZM119.4,21c-4.4,0-8,3.6-8,8s3.6,8,8,8,8-3.6,8-8-3.6-8-8-8Z"/>
  </g>
  <path class="st0" d="M117,30.6h-2.5c-.5,0-.9-.4-.9-.9v-1.3c0-.5.4-.9.9-.9h2.5c.5,0,.9-.4.9-.9v-2.4c0-.5.4-.9.9-.9h1.3c.5,0,.9.4.9.9v2.4c0,.5.4.9.9.9h2.5c.5,0,.9.4.9.9v1.3c0,.5-.4.9-.9.9h-2.5c-.5,0-.9.4-.9.9v2.4c0,.5-.4.9-.9.9h-1.3c-.5,0-.9-.4-.9-.9v-2.4c0-.5-.4-.9-.9-.9Z"/>
</svg>