<svg xmlns="http://www.w3.org/2000/svg" width="82.445" height="94.011" viewBox="0 0 82.445 94.011">
  <g id="c" transform="translate(0 0.027)">
    <g id="Group_33505" data-name="Group 33505" transform="translate(0 -0.027)">
      <path id="Path_43985" data-name="Path 43985" d="M27.462,63.784a26.543,26.543,0,0,0,10.226-2.077L54.145,34.066s.16-.32.32-.32a27.151,27.151,0,1,0-27,29.878Zm-7.03-15.5a1.305,1.305,0,0,1,1.917,0c.8.8,2.716,1.438,5.273,1.438a9.042,9.042,0,0,0,5.273-1.438,1.458,1.458,0,0,1,1.917,0,1.679,1.679,0,0,1,0,1.917,8.071,8.071,0,0,1-7.19,4.154,7.511,7.511,0,0,1-7.19-4.154c0-.32-.639-1.438,0-1.917Z" transform="translate(0.179 5.603)" fill="#489cf0"/>
      <path id="Path_43986" data-name="Path 43986" d="M30.038,55l4.634-7.829a31.5,31.5,0,0,1-7.03.8c-6.072,0-10.705-1.438-15.179-5.273C7.829,45.1,3.835,47.653.8,51.967a7.273,7.273,0,0,0-.8,3.2v2.556a3.956,3.956,0,0,0,3.994,3.994H30.677A5.8,5.8,0,0,1,30.038,55Z" transform="translate(0 25.569)" fill="#489cf0"/>
      <path id="Path_43987" data-name="Path 43987" d="M21.406,50.937a5.7,5.7,0,0,0,1.917,7.829l8.468,5.273a5.7,5.7,0,0,0,7.829-1.917l1.438-2.237L22.844,48.7l-1.438,2.237h0Z" transform="translate(12.307 29.155)" fill="#489cf0"/>
      <path id="Path_43988" data-name="Path 43988" d="M27.255,12c2.077,1.118,4.314,2.237,6.391,3.2a1.47,1.47,0,0,0,1.6.16,1.314,1.314,0,0,0,.639-.959c0-.639.639-1.118-.16-1.917-1.758-.959-4.154-1.758-3.994-2.237,0-.479,4.154-2.077,4.793-2.4A2.546,2.546,0,0,0,37.96,5.928c0-1.438-1.438-2.4-2.716-3.2-1.438-.8-3.036-1.6-4.474-2.4a1.722,1.722,0,0,0-1.278-.32c-.959,0-1.278,1.278-1.278,2.237a1.348,1.348,0,0,0,.32,1.118c.16.16.639.32.8.479a6.665,6.665,0,0,1,2.556,1.438c-.8.639-4.793,3.036-5.273,3.675a1.7,1.7,0,0,0,0,2.556c0,.32.479.32.639.479h0Z" transform="translate(15.566 0.027)" fill="#489cf0"/>
      <path id="Path_43989" data-name="Path 43989" d="M36.873,9.416a5.078,5.078,0,0,1,1.6,1.6c-.8.32-4.154,1.118-4.793,1.6-1.118.639-.639,1.6-.639,1.917,0,.16.16.32.32.479,1.438,1.278,2.716,2.556,4.154,3.835.32.32.639.639,1.118.479a1.062,1.062,0,0,0,.8-.639c.32-.479.8-.639.32-1.438-1.118-1.118-2.716-2.237-2.556-2.556s3.515-.639,4.154-.639a1.535,1.535,0,0,0,1.438-1.118c.32-1.118-.479-2.077-1.278-2.876L38.63,7.179c-.32-.32-.479-.479-.8-.479-.8,0-1.278.639-1.438,1.438,0,.479-.16.639,0,.959a.72.72,0,0,0,.479.479Z" transform="translate(19.688 4.049)" fill="#489cf0"/>
      <path id="Path_43990" data-name="Path 43990" d="M39.581,14.851c0,.32-.16.32,0,.639a2.3,2.3,0,0,0,.32.479,3.35,3.35,0,0,1,.959,1.278,23.334,23.334,0,0,0-3.515.479c-.8.32-.639.959-.639,1.278a.789.789,0,0,0,.16.479c.8,1.118,1.6,2.077,2.4,3.2.16.16.479.479.639.479a1.211,1.211,0,0,0,.639-.32c.32-.32.639-.32.32-.959-.639-.959-1.6-1.917-1.438-2.077a19.137,19.137,0,0,1,3.036,0,1.07,1.07,0,0,0,1.118-.639,2.118,2.118,0,0,0-.639-2.237,27.106,27.106,0,0,0-1.6-2.237.72.72,0,0,0-.479-.479c-.479-.16-.959.32-1.118.8h0Z" transform="translate(21.934 8.52)" fill="#489cf0"/>
      <path id="Path_43991" data-name="Path 43991" d="M37.979,33.786A1.478,1.478,0,0,0,38.3,35.7l1.438-2.556a1.343,1.343,0,0,0-1.758.639h0Z" transform="translate(22.577 19.783)" fill="#489cf0"/>
      <path id="Path_43992" data-name="Path 43992" d="M43.121,28.6a1.541,1.541,0,0,0-2.237.479,1.443,1.443,0,0,0,.639,2.077,1.541,1.541,0,0,0,2.237-.479A1.443,1.443,0,0,0,43.121,28.6Z" transform="translate(24.305 16.979)" fill="#489cf0"/>
      <path id="Path_43993" data-name="Path 43993" d="M35.379,38.386A1.478,1.478,0,0,0,35.7,40.3l1.438-2.556a1.343,1.343,0,0,0-1.758.639Z" transform="translate(21.023 22.533)" fill="#489cf0"/>
      <path id="Path_43994" data-name="Path 43994" d="M65.88,27.9l2.876-4.793L65.4,21.034l-.8,1.278L60.288,19.6l.8-1.278-3.2-1.917-2.876,4.793,3.2,1.917.8-1.278.959.639-2.077,3.355-1.278-.8-1.118,1.917a10.857,10.857,0,0,0-12.143,4.634L22.9,64.972,41.115,76.157,61.566,42.763a10.8,10.8,0,0,0-1.278-12.942L61.406,27.9l-1.278-.8,2.077-3.355.959.639-.8,1.278,3.355,2.077ZM41.274,64.813A8.207,8.207,0,0,1,38.4,67.689L37.12,65.931a6.007,6.007,0,0,0,2.237-2.237c.479-.959.479-1.438,0-1.6-1.278-.8-2.876,4.314-5.912,2.556-1.438-.8-1.917-2.716-.479-4.953a6.881,6.881,0,0,1,2.4-2.4l1.278,1.6a5.508,5.508,0,0,0-1.917,1.917c-.479.959-.479,1.438,0,1.758,1.278.639,2.876-4.314,5.752-2.556,1.438.8,1.917,2.556.479,4.953h0Zm2.4-4.474L35.2,55.546l1.278-2.077,8.468,4.793-1.278,2.077Zm3.994-6.711c-1.278,2.237-3.355,2.876-5.273,1.758s-2.4-3.2-1.278-5.273a3.672,3.672,0,0,1,5.113-1.438,2.3,2.3,0,0,1,.479.32L44.15,53.468a1.549,1.549,0,0,0,1.917-.959,2.341,2.341,0,0,0,.32-1.758l1.758-.479a4.668,4.668,0,0,1-.479,3.2h0Zm4.154-7.35c-1.278,2.237-3.355,2.876-5.273,1.758s-2.4-3.2-1.278-5.273a3.672,3.672,0,0,1,5.113-1.438,2.3,2.3,0,0,1,.479.32L48.3,46.119a1.549,1.549,0,0,0,1.917-.959,2.341,2.341,0,0,0,.32-1.758l1.758-.479a4.668,4.668,0,0,1-.479,3.2h0ZM56.294,43.4l-8.308-4.793L49.1,36.532l.639.32a2.887,2.887,0,0,1,.32-2.237A3.536,3.536,0,0,1,55.015,33.5a3.422,3.422,0,0,1,1.438,4.793,3.021,3.021,0,0,1-1.6,1.278l2.716,1.6-1.278,2.077Z" transform="translate(13.689 9.847)" fill="#489cf0"/>
    </g>
  </g>
</svg>
