<svg id="Group_33414" data-name="Group 33414" xmlns="http://www.w3.org/2000/svg" width="46" height="46" viewBox="0 0 46 46">
  <path id="XMLID_00000163782321385209262930000010208031974037011335_" d="M12.107,18.4h7.667V28.718a5.031,5.031,0,0,1-5.015,5.015H12.107A7.662,7.662,0,0,1,4.44,26.067h0A7.662,7.662,0,0,1,12.107,18.4Z" transform="translate(-4.44 -3.067)" fill="#5799f1" fill-rule="evenodd"/>
  <path id="XMLID_00000142176504312425265560000001353172866052860800_" d="M32.828,19.333a6.084,6.084,0,0,0,1.65-4.44V11.667A7.662,7.662,0,0,0,26.812,4h0a7.662,7.662,0,0,0-7.667,7.667V29.651a5.031,5.031,0,0,1-5.015,5.015H14.7a6.6,6.6,0,0,0,4.813-1.991Z" transform="translate(-3.812 -4)" fill="#fff" fill-rule="evenodd"/>
  <path id="XMLID_00000014609577180021743440000000434925767378694837_" d="M40.907,33.733H33.24V22.968A4.581,4.581,0,0,1,37.808,18.4h3.1a7.662,7.662,0,0,1,7.667,7.667h0A7.662,7.662,0,0,1,40.907,33.733Z" transform="translate(-2.573 -3.067)" fill="#fff" fill-rule="evenodd"/>
  <path id="XMLID_00000125587446740790833010000014855374629113629350_" d="M20.49,33.733a6.068,6.068,0,0,0-1.65,4.44V41.4a7.662,7.662,0,0,0,7.667,7.667h0A7.662,7.662,0,0,0,34.173,41.4V23.415A5.031,5.031,0,0,1,39.189,18.4h-.575A6.585,6.585,0,0,0,33.8,20.391Z" transform="translate(-3.507 -3.067)" fill="#5799f1" fill-rule="evenodd"/>
  <circle id="Ellipse_126" data-name="Ellipse 126" cx="2.545" cy="2.545" r="2.545" transform="translate(20.434 36.789)" fill="#003870"/>
  <circle id="Ellipse_127" data-name="Ellipse 127" cx="2.545" cy="2.545" r="2.545" transform="translate(36.789 20.455)" fill="#003870"/>
</svg>
