<svg id="Group_8" data-name="Group 8" xmlns="http://www.w3.org/2000/svg" width="135.067" height="38.373" viewBox="0 0 135.067 38.373">
  <g id="Group_5" data-name="Group 5" transform="translate(0 0)">
    <path id="Path_1" data-name="Path 1" d="M85.425,60.237a19.271,19.271,0,0,0-.367-3.937H67v7.454H77.341a9.005,9.005,0,0,1-3.832,5.774l6.247,4.829h0c3.622-3.36,5.722-8.242,5.722-14.121h0Z" transform="translate(-47.787 -40.657)" fill="#4285f4"/>
    <path id="Path_2" data-name="Path 2" d="M57.97,76.037h0A11.565,11.565,0,0,1,40.752,70h0l-1.365,1.05L34.4,74.934h0a19.092,19.092,0,0,0,17.113,10.6c7.507,0,9.5-1.732,12.7-4.619h0L57.97,76.089h0Z" transform="translate(-32.3 -47.165)" fill="#34a853"/>
    <path id="Path_3" data-name="Path 3" d="M37.487,59.981l1.365-1.05h0a12.266,12.266,0,0,1-.63-3.675,10.3,10.3,0,0,1,.63-3.622h0l-6.4-4.934a19.125,19.125,0,0,0,0,17.218h0l4.987-3.885h.052Z" transform="translate(-30.4 -36.096)" fill="#fbbc05"/>
    <path id="Path_4" data-name="Path 4" d="M40.852,42.038a11.484,11.484,0,0,1,10.761-7.874c4.987,0,5.354,1,7.349,2.835l5.512-5.512A18.411,18.411,0,0,0,51.613,26.5,19.092,19.092,0,0,0,34.5,37.1h0l6.4,4.934Z" transform="translate(-32.348 -26.5)" fill="#ea4335"/>
  </g>
  <g id="Group_6" data-name="Group 6" transform="translate(75.276 14.383)">
    <path id="Path_5" data-name="Path 5" d="M180.362,57.05l-1.575-3.15-1.575,3.15-3.412.525,2.467,2.467-.63,3.465,3.15-1.627,3.15,1.627-.577-3.465,2.52-2.467Z" transform="translate(-173.8 -53.9)" fill="#fbbc05"/>
    <path id="Path_6" data-name="Path 6" d="M203.967,57.05l-1.575-3.15-1.575,3.15-3.517.525,2.572,2.467-.63,3.465,3.15-1.627,3.15,1.627-.63-3.465,2.467-2.467Z" transform="translate(-184.964 -53.9)" fill="#fbbc05"/>
    <path id="Path_7" data-name="Path 7" d="M227.667,57.05l-1.575-3.15-1.575,3.15L221,57.575l2.52,2.467-.525,3.465,3.1-1.627,3.045,1.627-.525-3.465,2.52-2.467Z" transform="translate(-196.223 -53.9)" fill="#fbbc05"/>
    <path id="Path_8" data-name="Path 8" d="M251.362,57.05l-1.575-3.15-1.575,3.15-3.412.525,2.467,2.467-.63,3.465,3.15-1.627,3.15,1.627-.577-3.465,2.467-2.467Z" transform="translate(-207.529 -53.9)" fill="#fbbc05"/>
    <path id="Path_9" data-name="Path 9" d="M274.962,57.05l-1.522-3.15-1.575,3.15-3.465.525,2.52,2.467-.63,3.465,3.15-1.627,3.1,1.627-.577-3.465,2.572-2.467Z" transform="translate(-218.741 -53.9)" fill="#fbbc05"/>
  </g>
  <g id="Group_7" data-name="Group 7" transform="translate(48.032 11.076)">
    <path id="Path_10" data-name="Path 10" d="M131.979,58.5h-1.837v2.94h-2.1V58.5H121.9v-1.68l6.142-8.924h2.1v8.767h1.837v1.785h0Zm-3.937-1.785V53.307a23.371,23.371,0,0,1,.1-2.94h-.052a8.3,8.3,0,0,1-.787,1.47l-3.36,4.882h4.147Z" transform="translate(-121.9 -47.743)"/>
    <path id="Path_11" data-name="Path 11" d="M146,69.81a32.277,32.277,0,0,1-1.627,4.41H142.8c.42-1.68.735-3.2.945-4.619H145.9l.157.21Z" transform="translate(-131.829 -58.051)"/>
    <path id="Path_12" data-name="Path 12" d="M161.891,53.584c0,2.677-.525,4.619-1.627,5.932a5.89,5.89,0,0,1-4.829,1.942c-2.152,0-1.417,0-1.785-.157V59.464a5.774,5.774,0,0,0,1.627.21,4.294,4.294,0,0,0,3.255-1.155,5.82,5.82,0,0,0,1.155-3.727h-.1A3.191,3.191,0,0,1,158.269,56a3.88,3.88,0,0,1-1.785.367,3.678,3.678,0,0,1-2.835-1.1,4.373,4.373,0,0,1-1.05-3.045,4.973,4.973,0,0,1,1.207-3.36,4.27,4.27,0,0,1,3.255-1.26,3.71,3.71,0,0,1,2.52.682,4.253,4.253,0,0,1,1.627,2.047,8.309,8.309,0,0,1,.577,3.2h.1Zm-4.724-4.147a2.217,2.217,0,0,0-1.732.735,2.979,2.979,0,0,0-.577,2.047,2.653,2.653,0,0,0,.577,1.837,2,2,0,0,0,1.68.682,2.693,2.693,0,0,0,1.837-.63,2.02,2.02,0,0,0,.735-1.522,3.59,3.59,0,0,0-.315-1.522,3.255,3.255,0,0,0-.892-1.155,1.969,1.969,0,0,0-1.312-.42h0Z" transform="translate(-136.484 -47.6)"/>
  </g>
</svg>
