<svg xmlns="http://www.w3.org/2000/svg" width="112" height="130" viewBox="0 0 112 130">
  <g id="google-reviews" transform="translate(0.149)">
    <rect id="Rectangle_5780" data-name="Rectangle 5780" width="112" height="130" rx="12" transform="translate(-0.149)" fill="#fff"/>
    <g id="Group_33500" data-name="Group 33500" transform="translate(9.927 12.075)">
      <g id="Group_33495" data-name="Group 33495" transform="translate(9.617)">
        <path id="Path_43954" data-name="Path 43954" d="M127.307,70.076H92.3V84.05h20.045A17.256,17.256,0,0,1,104.9,95.141l11.958,9.3c7-6.477,11.03-16.02,11.03-27.332a43.371,43.371,0,0,0-.578-7.036Z" transform="translate(-55.111 -39.088)" fill="#4285f4"/>
        <path id="Path_43955" data-name="Path 43955" d="M71.448,107.064A22.223,22.223,0,0,1,50.593,91.69L38.26,101.264a37.133,37.133,0,0,0,33.182,20.512c10.041,0,18.435-3.349,24.573-9.015l-11.958-9.3a22.358,22.358,0,0,1-12.615,3.6Z" transform="translate(-34.278 -47.422)" fill="#34a853"/>
        <path id="Path_43956" data-name="Path 43956" d="M46.927,69.7a22.479,22.479,0,0,1,1.18-7.1L35.774,53.02a36.788,36.788,0,0,0,0,33.342l12.333-9.574a21.274,21.274,0,0,1-1.18-7.1Z" transform="translate(-31.78 -32.515)" fill="#fbbc05"/>
        <path id="Path_43957" data-name="Path 43957" d="M71.452,34.373a20.186,20.186,0,0,1,14.256,5.58l10.6-10.6a35.557,35.557,0,0,0-24.856-9.7A37.133,37.133,0,0,0,38.27,40.162L50.6,49.735A22.206,22.206,0,0,1,71.458,34.373Z" transform="translate(-34.282 -19.65)" fill="#ea4335"/>
      </g>
      <g id="Group_33496" data-name="Group 33496" transform="translate(0 83.742)">
        <path id="Path_43958" data-name="Path 43958" d="M17.924,160.846H16.13v-.8h1.794V158.21h.811v1.837H20.53v.8H18.735v1.825h-.811Z" transform="translate(-16.13 -156.809)"/>
        <path id="Path_43959" data-name="Path 43959" d="M27.938,163.015H26.881v-4.246c0-.51.012-.909.037-1.2a3.271,3.271,0,0,1-.252.24c-.1.086-.436.363-1.008.83l-.528-.67,1.936-1.524h.885v6.581Z" transform="translate(-19.6 -156.127)"/>
        <path id="Path_43960" data-name="Path 43960" d="M36.508,163.015H35.451v-4.246c0-.51.012-.909.037-1.2a3.272,3.272,0,0,1-.252.24c-.1.086-.436.363-1.008.83l-.528-.67,1.936-1.524h.885v6.581Z" transform="translate(-22.903 -156.127)"/>
        <path id="Path_43961" data-name="Path 43961" d="M42.09,165.792a.678.678,0,0,1,.172-.5.665.665,0,0,1,.5-.178.636.636,0,0,1,.5.184.691.691,0,0,1,.172.5.707.707,0,0,1-.172.5.764.764,0,0,1-1,0,.712.712,0,0,1-.172-.51Z" transform="translate(-26.138 -159.469)"/>
        <path id="Path_43962" data-name="Path 43962" d="M50.357,159.652A4.651,4.651,0,0,1,49.8,162.2a1.887,1.887,0,0,1-1.684.836,1.849,1.849,0,0,1-1.665-.86,4.567,4.567,0,0,1-.565-2.519,4.7,4.7,0,0,1,.553-2.569,1.878,1.878,0,0,1,1.684-.823,1.851,1.851,0,0,1,1.671.866,4.614,4.614,0,0,1,.565,2.532Zm-3.4,0a4.817,4.817,0,0,0,.277,1.923.928.928,0,0,0,.885.578.939.939,0,0,0,.891-.584,4.659,4.659,0,0,0,.283-1.911,4.732,4.732,0,0,0-.283-1.917.93.93,0,0,0-.891-.59.916.916,0,0,0-.885.584,4.817,4.817,0,0,0-.277,1.923Z" transform="translate(-27.603 -156.057)"/>
        <path id="Path_43963" data-name="Path 43963" d="M58.917,159.652a4.651,4.651,0,0,1-.553,2.544,1.887,1.887,0,0,1-1.684.836,1.849,1.849,0,0,1-1.665-.86,4.567,4.567,0,0,1-.565-2.519A4.7,4.7,0,0,1,55,157.083a1.878,1.878,0,0,1,1.684-.823,1.851,1.851,0,0,1,1.671.866,4.614,4.614,0,0,1,.565,2.532Zm-3.4,0a4.817,4.817,0,0,0,.277,1.923.928.928,0,0,0,.885.578.939.939,0,0,0,.891-.584,6.622,6.622,0,0,0,0-3.828.935.935,0,0,0-.891-.59.916.916,0,0,0-.885.584,4.817,4.817,0,0,0-.277,1.923Z" transform="translate(-30.903 -156.057)"/>
        <path id="Path_43964" data-name="Path 43964" d="M67.477,159.652a4.651,4.651,0,0,1-.553,2.544,1.887,1.887,0,0,1-1.684.836,1.849,1.849,0,0,1-1.665-.86,4.567,4.567,0,0,1-.565-2.519,4.7,4.7,0,0,1,.553-2.569,1.878,1.878,0,0,1,1.684-.823,1.851,1.851,0,0,1,1.671.866,4.614,4.614,0,0,1,.565,2.532Zm-3.4,0a4.817,4.817,0,0,0,.277,1.923.928.928,0,0,0,.885.578.939.939,0,0,0,.891-.584,4.659,4.659,0,0,0,.283-1.911,4.732,4.732,0,0,0-.283-1.917.93.93,0,0,0-.891-.59.916.916,0,0,0-.885.584,4.817,4.817,0,0,0-.277,1.923Z" transform="translate(-34.203 -156.057)"/>
        <path id="Path_43965" data-name="Path 43965" d="M77.315,160.381v2.63H76.24V156.43H78.1a3.055,3.055,0,0,1,1.886.479,1.705,1.705,0,0,1,.614,1.438,1.8,1.8,0,0,1-1.278,1.751l1.862,2.913H79.964l-1.573-2.63H77.328Zm0-.891h.75a1.7,1.7,0,0,0,1.088-.277,1.021,1.021,0,0,0,.338-.83.9.9,0,0,0-.363-.8,2.009,2.009,0,0,0-1.1-.246h-.713Z" transform="translate(-39.303 -156.123)"/>
        <path id="Path_43966" data-name="Path 43966" d="M87.626,164.042a2.425,2.425,0,0,1-1.819-.676,2.574,2.574,0,0,1-.658-1.868,2.858,2.858,0,0,1,.608-1.917,2.092,2.092,0,0,1,1.671-.7,2.064,2.064,0,0,1,1.555.6,2.285,2.285,0,0,1,.571,1.647v.571H86.238a1.612,1.612,0,0,0,.393,1.112,1.363,1.363,0,0,0,1.038.387,3.527,3.527,0,0,0,.823-.086,4.276,4.276,0,0,0,.817-.277v.86a3.142,3.142,0,0,1-.78.258,4.973,4.973,0,0,1-.9.074Zm-.2-4.357a1.037,1.037,0,0,0-.8.32,1.512,1.512,0,0,0-.363.934h2.261a1.35,1.35,0,0,0-.295-.934,1.023,1.023,0,0,0-.793-.32Z" transform="translate(-42.738 -157.067)"/>
        <path id="Path_43967" data-name="Path 43967" d="M97.179,164.017H93.4v-.651l2.513-3.515H93.547v-.811H97.1v.737l-2.464,3.429h2.532v.811Z" transform="translate(-45.919 -157.129)"/>
        <path id="Path_43968" data-name="Path 43968" d="M103.286,164.042a2.434,2.434,0,0,1-1.819-.676,2.574,2.574,0,0,1-.658-1.868,2.858,2.858,0,0,1,.608-1.917,2.1,2.1,0,0,1,1.671-.7,2.064,2.064,0,0,1,1.555.6,2.285,2.285,0,0,1,.571,1.647v.571H101.9a1.612,1.612,0,0,0,.393,1.112,1.363,1.363,0,0,0,1.038.387,3.527,3.527,0,0,0,.823-.086,4.276,4.276,0,0,0,.817-.277v.86a3.142,3.142,0,0,1-.78.258,4.973,4.973,0,0,1-.9.074Zm-.19-4.357a1.037,1.037,0,0,0-.8.32,1.512,1.512,0,0,0-.363.934h2.261a1.35,1.35,0,0,0-.295-.934,1.023,1.023,0,0,0-.793-.32Z" transform="translate(-48.775 -157.067)"/>
        <path id="Path_43969" data-name="Path 43969" d="M114.327,163.96h-1.063V160.9a1.355,1.355,0,0,0-.234-.86.891.891,0,0,0-.737-.283,1.173,1.173,0,0,0-.983.393,2.171,2.171,0,0,0-.313,1.327v2.483H109.94v-4.977h.83l.147.651h.055a1.474,1.474,0,0,1,.639-.547,2.147,2.147,0,0,1,.916-.2,1.6,1.6,0,0,1,1.794,1.825v3.245Z" transform="translate(-52.295 -157.071)"/>
        <path id="Path_43970" data-name="Path 43970" d="M122.616,162.536a1.309,1.309,0,0,1-.528,1.118,2.56,2.56,0,0,1-1.524.387,3.56,3.56,0,0,1-1.6-.3v-.916a3.918,3.918,0,0,0,1.635.406q.977,0,.977-.59a.444.444,0,0,0-.111-.313,1.184,1.184,0,0,0-.356-.258,6.181,6.181,0,0,0-.688-.307,3.192,3.192,0,0,1-1.161-.664,1.23,1.23,0,0,1-.3-.866,1.147,1.147,0,0,1,.516-1,2.462,2.462,0,0,1,1.4-.356,3.909,3.909,0,0,1,1.659.356l-.344.8a3.724,3.724,0,0,0-1.358-.332c-.559,0-.836.16-.836.479a.472.472,0,0,0,.221.393,4.684,4.684,0,0,0,.952.449,4.69,4.69,0,0,1,.9.436,1.25,1.25,0,0,1,.412.455,1.3,1.3,0,0,1,.135.621Z" transform="translate(-55.772 -157.067)"/>
        <path id="Path_43971" data-name="Path 43971" d="M126.67,156.52a.582.582,0,0,1,.154-.436.6.6,0,0,1,.442-.154.535.535,0,0,1,.59.59.553.553,0,0,1-.154.424.582.582,0,0,1-.436.154.6.6,0,0,1-.442-.154.571.571,0,0,1-.154-.424Zm1.118,6.3h-1.057v-4.977h1.057Z" transform="translate(-58.745 -155.93)"/>
        <path id="Path_43972" data-name="Path 43972" d="M135.183,161.455a2.718,2.718,0,0,1-.627,1.9,2.241,2.241,0,0,1-1.739.682,2.4,2.4,0,0,1-1.235-.313,2.064,2.064,0,0,1-.823-.9,3.1,3.1,0,0,1-.289-1.37,2.722,2.722,0,0,1,.621-1.893,2.242,2.242,0,0,1,1.751-.682,2.143,2.143,0,0,1,1.708.694,2.691,2.691,0,0,1,.633,1.874Zm-3.625,0c0,1.149.424,1.721,1.272,1.721s1.26-.571,1.26-1.721-.424-1.708-1.266-1.708a1.078,1.078,0,0,0-.965.442A2.215,2.215,0,0,0,131.558,161.455Z" transform="translate(-60.21 -157.067)"/>
        <path id="Path_43973" data-name="Path 43973" d="M144.487,163.96h-1.063V160.9a1.355,1.355,0,0,0-.234-.86.891.891,0,0,0-.737-.283,1.173,1.173,0,0,0-.983.393,2.171,2.171,0,0,0-.313,1.327v2.483H140.1v-4.977h.83l.147.651h.055a1.474,1.474,0,0,1,.639-.547,2.147,2.147,0,0,1,.916-.2,1.6,1.6,0,0,1,1.794,1.825v3.245Z" transform="translate(-63.922 -157.071)"/>
        <path id="Path_43974" data-name="Path 43974" d="M151.626,164.042a2.434,2.434,0,0,1-1.819-.676,2.574,2.574,0,0,1-.658-1.868,2.858,2.858,0,0,1,.608-1.917,2.092,2.092,0,0,1,1.671-.7,2.064,2.064,0,0,1,1.555.6,2.285,2.285,0,0,1,.571,1.647v.571h-3.318a1.612,1.612,0,0,0,.393,1.112,1.363,1.363,0,0,0,1.038.387,3.528,3.528,0,0,0,.823-.086,4.276,4.276,0,0,0,.817-.277v.86a3.142,3.142,0,0,1-.78.258,4.974,4.974,0,0,1-.9.074Zm-.2-4.357a1.037,1.037,0,0,0-.8.32,1.512,1.512,0,0,0-.363.934h2.261a1.35,1.35,0,0,0-.295-.934,1.023,1.023,0,0,0-.793-.32Z" transform="translate(-67.411 -157.067)"/>
        <path id="Path_43975" data-name="Path 43975" d="M162.657,163.96h-1.063V160.9a1.355,1.355,0,0,0-.234-.86.891.891,0,0,0-.737-.283,1.173,1.173,0,0,0-.983.393,2.171,2.171,0,0,0-.313,1.327v2.483H158.27v-4.977h.83l.147.651h.055a1.474,1.474,0,0,1,.639-.547,2.147,2.147,0,0,1,.916-.2,1.6,1.6,0,0,1,1.794,1.825v3.245Z" transform="translate(-70.927 -157.071)"/>
      </g>
      <g id="Group_33499" data-name="Group 33499" transform="translate(2.366 95.467)">
        <g id="Group_33497" data-name="Group 33497" transform="translate(21.218)">
          <path id="Path_43976" data-name="Path 43976" d="M61.847,178.519l-1.733-3.509-1.733,3.509-3.871.565,2.8,2.734-.657,3.853,3.466-1.825,3.472,1.825-.664-3.853,2.8-2.734Z" transform="translate(-54.51 -175.01)" fill="#fbbc05"/>
          <path id="Path_43977" data-name="Path 43977" d="M84.233,178.519l-1.739-3.509-1.727,3.509-3.877.565,2.808,2.734-.664,3.853,3.46-1.825,3.472,1.825-.664-3.853,2.808-2.734Z" transform="translate(-63.138 -175.01)" fill="#fbbc05"/>
          <path id="Path_43978" data-name="Path 43978" d="M106.623,178.519l-1.733-3.509-1.739,3.509-3.871.565,2.8,2.734-.664,3.853,3.472-1.825,3.466,1.825-.657-3.853,2.8-2.734Z" transform="translate(-71.769 -175.01)" fill="#fbbc05"/>
          <path id="Path_43979" data-name="Path 43979" d="M129,178.519l-1.727-3.509-1.733,3.509-3.884.565,2.808,2.734-.658,3.853,3.466-1.825,3.46,1.825-.658-3.853,2.8-2.734Z" transform="translate(-80.397 -175.01)" fill="#fbbc05"/>
          <path id="Path_43980" data-name="Path 43980" d="M155.268,179.084l-3.871-.565-1.733-3.509-1.733,3.509-3.871.565,2.8,2.734-.658,3.853,3.466-1.825,3.472,1.825-.664-3.853Z" transform="translate(-89.033 -175.01)" fill="#fbbc05"/>
        </g>
        <g id="Group_33498" data-name="Group 33498" transform="translate(0 2.63)">
          <path id="Path_43981" data-name="Path 43981" d="M24.9,184.578h-.885v1.438H22.985v-1.438h-3v-.817l3-4.351h1.032v4.283H24.9v.879Zm-1.917-.879v-1.653c0-.59.012-1.069.043-1.444h-.037a5.6,5.6,0,0,1-.393.719L20.963,183.7h2.022Z" transform="translate(-19.98 -179.336)"/>
          <path id="Path_43982" data-name="Path 43982" d="M29.23,188.812a.678.678,0,0,1,.172-.5.665.665,0,0,1,.5-.178.636.636,0,0,1,.5.184.691.691,0,0,1,.172.5.707.707,0,0,1-.172.5.764.764,0,0,1-1,0,.713.713,0,0,1-.172-.51Z" transform="translate(-23.546 -182.698)"/>
          <path id="Path_43983" data-name="Path 43983" d="M37.481,182.19a4.515,4.515,0,0,1-.78,2.9,2.869,2.869,0,0,1-2.36.959,3.512,3.512,0,0,1-.86-.074v-.885a2.993,2.993,0,0,0,.8.111,2.05,2.05,0,0,0,1.6-.578,2.832,2.832,0,0,0,.578-1.807h-.055a1.6,1.6,0,0,1-.639.584,2.038,2.038,0,0,1-.879.178,1.743,1.743,0,0,1-1.37-.547,2.128,2.128,0,0,1-.5-1.493A2.276,2.276,0,0,1,33.6,179.9a2.074,2.074,0,0,1,1.579-.608,2.1,2.1,0,0,1,2.028,1.34,3.871,3.871,0,0,1,.283,1.561Zm-2.292-2.016a1.02,1.02,0,0,0-.842.356,1.539,1.539,0,0,0-.295,1.008,1.347,1.347,0,0,0,.27.885,1.018,1.018,0,0,0,.823.32,1.274,1.274,0,0,0,.9-.32.978.978,0,0,0,.363-.75,1.819,1.819,0,0,0-.154-.75,1.311,1.311,0,0,0-.436-.553,1.056,1.056,0,0,0-.639-.2Z" transform="translate(-25.007 -179.29)"/>
          <path id="Path_43984" data-name="Path 43984" d="M41.622,183.165q0-3.862,3.146-3.865a4.014,4.014,0,0,1,.836.074v.885a2.8,2.8,0,0,0-.793-.1,2.094,2.094,0,0,0-1.592.565,2.737,2.737,0,0,0-.578,1.819H42.7a1.431,1.431,0,0,1,.6-.565,1.894,1.894,0,0,1,.9-.2,1.8,1.8,0,0,1,1.395.547,2.122,2.122,0,0,1,.5,1.487,2.251,2.251,0,0,1-.578,1.635,2.093,2.093,0,0,1-1.579.6,2.092,2.092,0,0,1-2.034-1.327,3.871,3.871,0,0,1-.283-1.561Zm2.3,2.022a1.042,1.042,0,0,0,.842-.35,1.51,1.51,0,0,0,.295-1,1.322,1.322,0,0,0-.277-.891,1.034,1.034,0,0,0-.83-.326,1.389,1.389,0,0,0-.633.147,1.2,1.2,0,0,0-.455.4.952.952,0,0,0-.166.522,1.677,1.677,0,0,0,.344,1.069,1.074,1.074,0,0,0,.879.436Z" transform="translate(-28.319 -179.294)"/>
        </g>
      </g>
    </g>
  </g>
</svg>
