<svg xmlns="http://www.w3.org/2000/svg" xmlns:xlink="http://www.w3.org/1999/xlink" width="398.562" height="37.208" viewBox="0 0 398.562 37.208">
  <defs>
    <radialGradient id="radial-gradient" cx="0.531" cy="0.332" r="0.361" gradientTransform="matrix(0.846, 0.557, 0.64, -0.936, -10.289, 36.663)" gradientUnits="objectBoundingBox">
      <stop offset="0"/>
      <stop offset="1" stop-opacity="0"/>
    </radialGradient>
    <radialGradient id="radial-gradient-2" cx="0.636" cy="0.277" r="1.138" gradientTransform="matrix(0.759, 0.667, 0.764, -0.837, -15.876, 43.483)" gradientUnits="objectBoundingBox">
      <stop offset="0" stop-opacity="0"/>
      <stop offset="1"/>
    </radialGradient>
    <radialGradient id="radial-gradient-3" cx="0.742" cy="0.003" r="0.53" gradientTransform="matrix(0.655, 0.766, 0.961, -0.793, -22.612, 49.655)" gradientUnits="objectBoundingBox">
      <stop offset="0" stop-color="#fff"/>
      <stop offset="1" stop-color="#fff" stop-opacity="0"/>
    </radialGradient>
    <radialGradient id="radial-gradient-4" cx="0.497" cy="0.5" r="0.487" gradientTransform="matrix(1.023, 0, 0, -1.022, 1.385, 1.588)" gradientUnits="objectBoundingBox">
      <stop offset="0" stop-color="#fff"/>
      <stop offset="1" stop-color="#e6e6e6" stop-opacity="0"/>
    </radialGradient>
    <radialGradient id="radial-gradient-5" cx="0.675" cy="1.077" r="0.31" gradientTransform="matrix(0.554, -0.841, -0.607, -0.382, -27.306, -51.455)" gradientUnits="objectBoundingBox">
      <stop offset="0" stop-color="#fff" stop-opacity="0"/>
      <stop offset="1" stop-color="#fff"/>
    </radialGradient>
    <linearGradient id="linear-gradient" x1="-14.092" y1="3.847" x2="-15.093" y2="3.85" gradientUnits="objectBoundingBox">
      <stop offset="0" stop-color="#2c3566"/>
      <stop offset="0.137" stop-color="#2b396a"/>
      <stop offset="0.283" stop-color="#264577"/>
      <stop offset="0.433" stop-color="#1f588c"/>
      <stop offset="0.586" stop-color="#1574aa"/>
      <stop offset="0.739" stop-color="#0897d0"/>
      <stop offset="0.826" stop-color="#00aee9"/>
    </linearGradient>
    <linearGradient id="linear-gradient-2" x1="-19.096" y1="17.195" x2="-18.099" y2="16.851" gradientUnits="objectBoundingBox">
      <stop offset="0.009" stop-color="#214879"/>
      <stop offset="0.2" stop-color="#17669b"/>
      <stop offset="0.422" stop-color="#0d83bc"/>
      <stop offset="0.634" stop-color="#0698d4"/>
      <stop offset="0.832" stop-color="#01a5e2"/>
      <stop offset="1" stop-color="#00a9e7"/>
    </linearGradient>
  </defs>
  <g id="tv-logos-ohne-bekannt" transform="translate(-5.136 -7.7)">
    <g id="g2446" transform="translate(100.838 16.153)">
      <path id="path2452" d="M-513.688-447.76a6.817,6.817,0,0,1,6.821,6.821,6.817,6.817,0,0,1-6.821,6.821,6.816,6.816,0,0,1-6.821-6.821,6.823,6.823,0,0,1,6.821-6.821m2.75,9.581v-6.831l-6.874,2.47v1.7l2.277-.827v5.134Zm-2.75-8.582a5.826,5.826,0,0,0-5.822,5.822,5.826,5.826,0,0,0,5.822,5.822,5.826,5.826,0,0,0,5.822-5.822h0a5.813,5.813,0,0,0-5.822-5.822m-54.318,12.342h-3.749l1.794-6.155Zm24.866,6.434-.2-1.9c-2.352.462-1.643-5.8-4.382-6.123a4.5,4.5,0,0,0,3.394-4.4c0-3.136-2.352-4.586-6.305-4.586-2.428,0-5.575.129-6.208.129h-1.923v1.59a9.309,9.309,0,0,0,2.105,1.085v11.719a7.473,7.473,0,0,0-2.105,1.063v1.622h7.82v-1.622a6.5,6.5,0,0,0-1.472-1.063v-4.232h.763c2.632,0,1.719,7.2,5.6,7.2a7.762,7.762,0,0,0,2.922-.473m-5.6-11.848a2.36,2.36,0,0,1-2.009,2.685,2.879,2.879,0,0,1-.526.021h-1.139v-5.317a6.444,6.444,0,0,1,1.01-.107,2.457,2.457,0,0,1,2.664,2.234,1.821,1.821,0,0,1,0,.483M-523.4-436.7c0-5.972-3.04-8.281-8.539-8.281-2.309,0-5.167.107-6.531.107h-2.052v1.6a11.6,11.6,0,0,0,2.105,1.117v11.676a7.536,7.536,0,0,0-2.105,1.085v1.622h2.127c.763,0,3.448.107,5.3.107,5.521-.022,9.7-3.19,9.7-9.033m-4.49.376c0,4.125-1.794,5.951-4.1,5.951a6.819,6.819,0,0,1-2.18-.258v-11.848a14.3,14.3,0,0,1,1.515-.075c3.813,0,4.769,2.889,4.769,6.23m-33.029,8.539V-429.4a4.91,4.91,0,0,0-1.214-1.042l-4.995-14.479H-571.3l-4.984,14.49a5.238,5.238,0,0,0-1.472,1.042v1.622h6.305v-1.622a6.416,6.416,0,0,0-1.472-1.042l.483-1.59h5.145l.537,1.59a6.521,6.521,0,0,0-1.547,1.042v1.622l7.39-.011Z" transform="translate(577.76 447.76)" fill="#0f1d46"/>
    </g>
    <g id="Sat.1_Logo" transform="translate(5.228 8.016)">
      <g id="layer3" transform="translate(0 0.008)">
        <g id="g3319" transform="translate(0 0)">
          <path id="path3681" d="M-554.91-421.535c7.616-2.138,24.157-11.053,26.66-15.521a.92.92,0,0,0,.107-.559c-.021-.795-2.9-5.65-6.885-7.863a.86.86,0,0,0-.494-.011c-1.687.354-4.726,2.739-8.206,6.821a72.848,72.848,0,0,0-11.182,17.132" transform="translate(562.282 448.182)" fill="none" stroke="#000" stroke-width="0.1"/>
          <path id="path3710" d="M-527.692-435.66c.526.247.687,1.128.687,1.343-.086,4.952-17.583,12.363-27.906,12.75,6.96,4.135,19.839,5.8,25.349.677,1.547-1.439,4.049-6.488,2.535-13.512" transform="translate(562.282 448.913)" fill="none" stroke="#000" stroke-width="0.1"/>
          <path id="path3714" d="M-529.228-422.207c-.977,2.836-3.835,5.371-9.5,5.392a25.737,25.737,0,0,1-16.187-5.725c2.234,3.448,5.779,8.6,11.858,9.076,2.127.161,6.133-1.343,7.906-2.47,3.018-1.912,5.532-4.49,5.918-6.273" transform="translate(562.282 449.885)" fill="none" stroke="#000" stroke-width="0.1"/>
          <path id="path3738" d="M-543.757-413.54a6.14,6.14,0,0,1-2.578.064,6.652,6.652,0,0,1-2.857-1.257c-3.534-2.385-5.124-6.5-5.7-7.8-.44,3.072-.236,5.8,1.3,6.681a18.126,18.126,0,0,0,5.607,2.18,13.289,13.289,0,0,0,2.052.29,4.9,4.9,0,0,0,.687.011" transform="translate(562.268 449.886)" fill="none" stroke="#000" stroke-width="0.1"/>
          <path id="path3623" d="M-554.478-417.116a1.094,1.094,0,0,1-.977-.365,1.931,1.931,0,0,1-.215-1.171,13.479,13.479,0,0,1,1.106-3.878c-1.171.387-4.264,1.235-4.973.354.011.021-.075-.107-.011,0a19.818,19.818,0,0,0,2.664,3.448,11.394,11.394,0,0,0,1.171,1.106,1.562,1.562,0,0,0,1.235.5" transform="translate(561.936 449.886)" fill="none" stroke="#000" stroke-width="0.1"/>
          <path id="path3647" d="M-561.448-433.56c-1.633,5.2,3.212,9.409,7.046,11.579-.741-.032-4.909.107-5.832-1.439C-562.038-427.223-561.974-432.583-561.448-433.56Z" transform="translate(561.773 449.068)" fill="none" stroke="#000" stroke-width="0.1"/>
          <path id="path3671" d="M-551.286-446.25c-6.928,1.353-9.334,13.534-3.126,24.78-4.264-3.4-6.95-7.4-7.078-11.579C-560.91-439.913-554.079-446.067-551.286-446.25Z" transform="translate(561.794 448.128)" fill="none" stroke="#000" stroke-width="0.1"/>
          <path id="path3673" d="M-559.566-422.364a.731.731,0,0,1,.043-.666" transform="translate(561.932 449.849)" fill="none" stroke="#000" stroke-width="0.1"/>
          <path id="path3689" d="M-536.694-445.927c-1.912-2.61-5.994.365-10.118,6.08-3.437,4.758-6.96,12.095-7.959,18.5-2.449-6.015-3.867-19.13,3.126-24.769,4.812-3.341,13.609-1.493,14.737-.043C-536.844-446.1-536.941-446.217-536.694-445.927Z" transform="translate(562.143 447.998)" fill="none" stroke="#000" stroke-width="0.1"/>
          <path id="path3628" d="M-538.41-446.21c.537.226,1.074.548,1.568.806" transform="translate(563.505 448.131)" fill="none" stroke="#000" stroke-width="0.1"/>
          <path id="path3634" d="M-530.07-437.45a12.078,12.078,0,0,1,.6,1.719" transform="translate(564.123 448.78)" fill="none" stroke="#000" stroke-width="0.1"/>
          <path id="path3646" d="M-554.58-417.351a3.708,3.708,0,0,1-.44-.269" transform="translate(562.274 450.25)" fill="none" stroke="#000" stroke-width="0.1"/>
          <path id="path3637" d="M-559.68-423.45l.161.451" transform="translate(561.928 449.818)" fill="none" stroke="#000" stroke-width="0.1"/>
        </g>
        <g id="g3334" transform="translate(0.184 1.373)">
          <path id="path3733" d="M-555.637-424.193c-3.609-2.406-6.885-5.854-5.983-10.108" transform="translate(561.771 449.013)" fill="none" stroke="blue" stroke-width="0.1"/>
          <path id="path3620" d="M-555.31-424.061c-5.188-10.5-3.029-21.407,3.4-23.319" transform="translate(562.035 448.044)" fill="none" stroke="blue" stroke-width="0.1"/>
          <path id="path3639" d="M-559.679-424.26a.7.7,0,0,0,.526.816,10.307,10.307,0,0,0,4.232-.516" transform="translate(561.925 449.757)" fill="none" stroke="blue" stroke-width="0.1"/>
          <path id="path3624" d="M-554.86-423.242c2.052-11.375,13.341-27.981,17.476-24.211" transform="translate(562.283 447.998)" fill="none" stroke="blue" stroke-width="0.1"/>
          <path id="path3630" d="M-527.842-436.98c1.665,1.783-1.364,4.737-6.284,7.39-5.865,3.158-14.372,5.908-20.355,6.251" transform="translate(562.311 448.815)" fill="none" stroke="blue" stroke-width="0.1"/>
          <path id="path3636" d="M-554.39-423.43c5.65,3.77,11.192,5.317,15.79,5.134,6.713-.279,8.4-4.006,8.883-4.919" transform="translate(562.318 449.819)" fill="none" stroke="blue" stroke-width="0.1"/>
          <path id="path3640" d="M-554.56-423.02a15.092,15.092,0,0,0,6.026,7.25,6.275,6.275,0,0,0,3.147.892,3.879,3.879,0,0,0,1-.064" transform="translate(562.305 449.849)" fill="none" stroke="blue" stroke-width="0.1"/>
          <path id="path3635" d="M-555.1-423.18a10.129,10.129,0,0,0-.881,3.319c-.011.816.236,1.2.892,1.321" transform="translate(562.2 449.837)" fill="none" stroke="blue" stroke-width="0.1"/>
        </g>
        <g id="g3344" transform="translate(0.34 1.616)">
          <path id="path3619" d="M-556.614-425.225c-2.589-2.062-5.564-4.984-5.113-8.915" transform="translate(561.773 449.033)" fill="none" stroke="red" stroke-width="0.1"/>
          <path id="path3622" d="M-555.923-425.771a27.965,27.965,0,0,1-2.127-9.936c-.065-4.855,1.45-9.667,5.822-11.783" transform="translate(562.048 448.043)" fill="none" stroke="red" stroke-width="0.1"/>
          <path id="path3626" d="M-554.56-424.487a63.818,63.818,0,0,1,8.077-17.315c3.459-4.823,7.036-7.035,8.926-5.918" transform="translate(562.307 448.005)" fill="none" stroke="red" stroke-width="0.1"/>
          <path id="path3632" d="M-528.028-437.22c1.633,3.072-4.64,7.025-12.417,10.107A59.542,59.542,0,0,1-554-423.793" transform="translate(562.349 448.804)" fill="none" stroke="red" stroke-width="0.1"/>
          <path id="path3638" d="M-552.64-422.7c8.5,4.8,18.357,5.843,22.567-.709" transform="translate(562.449 449.828)" fill="none" stroke="red" stroke-width="0.1"/>
          <path id="path3642" d="M-553.64-421.73c3.179,5.22,5.725,6.187,8.529,6.337" transform="translate(562.375 449.953)" fill="none" stroke="red" stroke-width="0.1"/>
          <path id="path3648" d="M-555.273-418.828a1.376,1.376,0,0,1-.687-1.01,10.027,10.027,0,0,1,.666-3.222" transform="translate(562.203 449.854)" fill="none" stroke="red" stroke-width="0.1"/>
          <path id="path3641" d="M-559.85-424.54c.226.322.312.559.58.666a4.064,4.064,0,0,0,2.879-.344" transform="translate(561.915 449.744)" fill="none" stroke="red" stroke-width="0.1"/>
        </g>
      </g>
      <g id="layer11" transform="translate(0.019 1.125)">
        <path id="path4084" d="M-559.533-424.05a.52.52,0,0,0-.086.172.833.833,0,0,0,.022.43.789.789,0,0,0,.483.365,2.529,2.529,0,0,0,.849.107,7.7,7.7,0,0,0,.859-.054,16.634,16.634,0,0,0,2.674-.623c.022-.021.075-.011.086-.043-.021-.032-.086-.011-.118-.021-.44-.011-.881-.011-1.321-.032a5.078,5.078,0,0,1-1.633.462,2.593,2.593,0,0,1-1.278-.14.559.559,0,0,1-.258-.215c-.075-.2-.172-.4-.279-.4v-.011Z" transform="translate(561.921 449.778)" opacity="0.75"/>
        <path id="path2935-1" d="M-554.864-423.51h0c-.129.279-.236.569-.344.859a12.867,12.867,0,0,0-.709,2.535,3.568,3.568,0,0,0,0,1.171.855.855,0,0,0,.43.634,1.159,1.159,0,0,0,.7.161c.022-.032-.075-.054-.1-.086l-.011-.011c.021,0,.075,0,.064-.011a4.186,4.186,0,0,1-.43-.333c-.032-.021-.1-.075-.161-.129l-.032-.043a1.214,1.214,0,0,1-.193-.72,5.489,5.489,0,0,1,.161-1.182c.15-.634.333-1.246.516-1.869.032-.322.075-.644.107-.977C-554.853-423.5-554.853-423.51-554.864-423.51Z" transform="translate(562.193 449.818)" opacity="0.75"/>
        <path id="path2939-4" d="M-554.85-423.46h0c.086.247.193.483.3.72a18.719,18.719,0,0,0,3.115,5.005,12.088,12.088,0,0,0,2.03,1.815,11.755,11.755,0,0,0,1.192.763,4.619,4.619,0,0,0,.967.376h.075c-.032.043.075.032.107.054.322.086.634.183.956.247a6.079,6.079,0,0,0,1.4.032,6.017,6.017,0,0,0,.881-.129c.011-.043-.086-.021-.118-.043a2.28,2.28,0,0,1-.741-.226c-.2,0-.43-.011-.655-.022a4.933,4.933,0,0,1-2.374-.569,9.347,9.347,0,0,1-2.922-2.17,22.352,22.352,0,0,1-2.524-3.405c-.183-.279-.4-.548-.58-.827-.376-.526-.73-1.074-1.085-1.611.011-.011,0-.011-.022-.011Z" transform="translate(562.276 449.822)" opacity="0.75"/>
        <path id="path2943-0" d="M-554.78-423.49c-.021.032.043.043.054.064a26.714,26.714,0,0,0,8,4.307,25.312,25.312,0,0,0,6.563,1.235c.72.043,1.429.032,2.148.011a18.483,18.483,0,0,0,1.89-.193c0-.011.011-.022.011-.032v.021c.032.021.086-.011.129-.011a10.1,10.1,0,0,0,3.942-1.547,7.252,7.252,0,0,0,2.438-2.782,8.353,8.353,0,0,0,.322-.773c.021-.054.021-.054-.011-.011a6.344,6.344,0,0,1-.548.526c-.107.161-.226.333-.344.5-.2.279-.419.559-.559.741a10.558,10.558,0,0,1-1.5,1.267,10.782,10.782,0,0,1-3.813,1.568.081.081,0,0,0-.043.021c-.043-.011-.1.021-.14.021a15.38,15.38,0,0,1-2.8.258,21.914,21.914,0,0,1-6-.9,32.531,32.531,0,0,1-6.993-2.954,5.682,5.682,0,0,0-.58-.269,22.984,22.984,0,0,1-2.116-1.074C-554.758-423.49-554.769-423.5-554.78-423.49Z" transform="translate(562.281 449.819)" opacity="0.75"/>
        <path id="path2947-9" d="M-527.7-436.99c-.021.032.011.075.021.118.075.236.215.795.279,1.053a2.577,2.577,0,0,1-.247,1.235,6.365,6.365,0,0,1-1.482,1.9,19.689,19.689,0,0,1-3.115,2.288,45.933,45.933,0,0,1-5.005,2.589c-.032.021-.075.021-.1.054h0c-.172.054-.322.14-.494.2-1.386.6-2.782,1.171-4.211,1.654a57.617,57.617,0,0,1-7.229,1.88c-1.439.279-2.889.516-4.339.709-.408.14-.827.258-1.235.387-.021.043.075.011.1.011a36.462,36.462,0,0,0,6.284-.9,60.731,60.731,0,0,0,8.109-2.438q1.8-.677,3.577-1.482c0-.011,0-.021-.011-.021h.064a40.988,40.988,0,0,0,5.532-3,16.221,16.221,0,0,0,2.761-2.234,5.882,5.882,0,0,0,1.246-1.815,2.217,2.217,0,0,0,.161-1.053,1.863,1.863,0,0,0-.462-1.01c-.065-.043-.129-.086-.2-.129Z" transform="translate(562.276 448.819)" opacity="0.75"/>
        <path id="path2951-4" d="M-561.491-434.49a.9.9,0,0,0-.064.226,6.256,6.256,0,0,0-.2,1.665,5.207,5.207,0,0,0,.043.913.06.06,0,0,0,.032.075.021.021,0,0,0-.011.032,8.2,8.2,0,0,0,1.343,3.33,14.865,14.865,0,0,0,3.061,3.244,22.521,22.521,0,0,0,2.75,1.869c.032.011.032-.021.011-.032-.569-.462-1.128-.956-1.665-1.45-.365-.322-.741-.612-1.106-.934a15.008,15.008,0,0,1-2.879-3.233,8.123,8.123,0,0,1-1.063-2.492c-.032-.107-.043-.2-.075-.311-.011,0-.022-.011-.032-.011h.032c0-.086-.032-.172-.032-.258a7.288,7.288,0,0,1-.032-1.676c0-.161-.032-.322-.043-.483s-.021-.3-.032-.451c-.011-.011-.021-.021-.032-.021Z" transform="translate(561.764 449.004)" opacity="0.75"/>
        <path id="path2953-8" d="M-551.58-447.29a6.346,6.346,0,0,0-1.858.687.023.023,0,0,0,.021.021h-.054a7.794,7.794,0,0,0-2.6,2.492,12.382,12.382,0,0,0-1.6,3.684,18.018,18.018,0,0,0-.516,3.029c0,.021,0,.021.011.032h-.011c-.032.322-.043.634-.054.956-.011.58-.011,1.16.011,1.74a25.048,25.048,0,0,0,.43,3.566h0c.032.226.1.451.14.688a29.227,29.227,0,0,0,2.535,7.025c.118.226.226.451.355.666.043,0,0-.054,0-.075a23.826,23.826,0,0,1-.784-2.438c-.129-.365-.29-.72-.419-1.085a28.206,28.206,0,0,1-1.3-4.769h-.011c-.064-.4-.129-.795-.183-1.192a21.324,21.324,0,0,1-.226-3.308c0-.58.021-1.171.075-1.751,0-.021-.021-.021-.032-.021h.032c.032-.054.011-.118.022-.172a14.716,14.716,0,0,1,1.439-5.22,9.531,9.531,0,0,1,2.76-3.33c.236-.183.483-.333.72-.494h.011c.182-.086.344-.2.526-.29a1.972,1.972,0,0,0,.408-.247c.064-.054.129-.107.183-.161C-551.558-447.279-551.569-447.29-551.58-447.29Zm-1.74.709h0Z" transform="translate(562.024 448.055)" opacity="0.75"/>
        <path id="path2955-8" d="M-538.713-448a3.289,3.289,0,0,0-1.063.215,8.612,8.612,0,0,0-2.277,1.364c-.387.311-.752.644-1.117.988,0,.011,0,.011.011.011h-.032c-.612.6-1.192,1.225-1.751,1.869a39.826,39.826,0,0,0-2.718,3.588c-.58.859-1.128,1.751-1.654,2.642a.037.037,0,0,0,.011.021h-.032a54.575,54.575,0,0,0-3.083,6.262l.011.011h-.011a43.044,43.044,0,0,0-1.847,5.467,28.767,28.767,0,0,0-.634,3.008c.032.032.043-.054.054-.064.2-.43.408-.859.612-1.3.107-.279.183-.559.279-.838.6-1.89,1.289-3.759,2.041-5.607.086-.215.183-.44.269-.655l-.011-.011h.011c.043-.086.086-.183.129-.279a64.542,64.542,0,0,1,2.879-5.951.039.039,0,0,0,.011-.032h0a3.116,3.116,0,0,0,.182-.322,35.145,35.145,0,0,1,4.135-5.961,22.389,22.389,0,0,1,1.815-1.826c0-.011-.011-.011-.011-.021h.043a11.053,11.053,0,0,1,2.234-1.547,4.42,4.42,0,0,1,1.944-.526,2.265,2.265,0,0,1,1.085.279c.107.054.2.1.311.14.032-.021-.022-.043-.032-.064a1.844,1.844,0,0,0-.516-.483,1.774,1.774,0,0,0-.644-.3A1.8,1.8,0,0,0-538.713-448Z" transform="translate(562.272 448.002)" opacity="0.75"/>
      </g>
      <g id="layer4" transform="translate(0.277 0.326)">
        <path id="path3715" d="M-544.208-448a17.728,17.728,0,0,0-17.562,17.884v.011a18.17,18.17,0,0,0,1.89,8.077v.021l.086.054a6.847,6.847,0,0,0,.387.913,13.949,13.949,0,0,0,1.579,2.363,17.16,17.16,0,0,0,3.5,3.212c-.021,0,.688.462.956.623h0a17.3,17.3,0,0,0,9.162,2.632,17.734,17.734,0,0,0,17.573-17.873v-.011A17.755,17.755,0,0,0-544.208-448Z" transform="translate(561.771 448)" fill="#ff2a7f"/>
      </g>
      <g id="g3919" transform="translate(0.019 0.326)">
        <g id="g3258" transform="translate(0.258 0)">
          <path id="path3921" d="M-544.208-448a17.728,17.728,0,0,0-17.562,17.884v.011a18.17,18.17,0,0,0,1.89,8.077v.021l.086.054a6.847,6.847,0,0,0,.387.913,13.949,13.949,0,0,0,1.579,2.363,17.16,17.16,0,0,0,3.5,3.212c-.021,0,.688.462.956.623h0a17.3,17.3,0,0,0,9.162,2.632,17.734,17.734,0,0,0,17.573-17.873v-.011A17.755,17.755,0,0,0-544.208-448Z" transform="translate(561.771 448)" opacity="0.35" fill="url(#radial-gradient)"/>
          <path id="path2963" d="M-544.208-448a17.728,17.728,0,0,0-17.562,17.884v.011a18.17,18.17,0,0,0,1.89,8.077v.021l.086.054a6.847,6.847,0,0,0,.387.913,13.949,13.949,0,0,0,1.579,2.363,17.16,17.16,0,0,0,3.5,3.212c-.021,0,.688.462.956.623h0a17.3,17.3,0,0,0,9.162,2.632,17.734,17.734,0,0,0,17.573-17.873v-.011A17.762,17.762,0,0,0-544.208-448Z" transform="translate(561.771 448)" opacity="0.35" fill="url(#radial-gradient-2)"/>
          <path id="path2958" d="M-544.208-448a17.728,17.728,0,0,0-17.562,17.884v.011a18.17,18.17,0,0,0,1.89,8.077v.021l.086.054a6.847,6.847,0,0,0,.387.913,13.949,13.949,0,0,0,1.579,2.363,17.16,17.16,0,0,0,3.5,3.212c-.021,0,.688.462.956.623h0a17.3,17.3,0,0,0,9.162,2.632,17.734,17.734,0,0,0,17.573-17.873v-.011A17.762,17.762,0,0,0-544.208-448Z" transform="translate(561.771 448)" opacity="0.75" fill="url(#radial-gradient-3)"/>
        </g>
        <g id="g3263" transform="translate(0 0.8)">
          <path id="path2935" d="M-554.865-423.51c-.129.279-.226.569-.333.849a12.865,12.865,0,0,0-.709,2.535,3.569,3.569,0,0,0,0,1.171.845.845,0,0,0,.43.623,1.142,1.142,0,0,0,.7.161c.021-.032-.075-.054-.1-.086a2.313,2.313,0,0,1-.559-.516,1.212,1.212,0,0,1-.193-.72,5.49,5.49,0,0,1,.161-1.182c.14-.634.333-1.246.516-1.869.032-.322.075-.644.107-.967Z" transform="translate(562.194 449.818)" opacity="0.5"/>
          <path id="path2937" d="M-559.533-424.05a.52.52,0,0,0-.086.172.833.833,0,0,0,.022.43.789.789,0,0,0,.483.365,2.529,2.529,0,0,0,.849.107,7.7,7.7,0,0,0,.859-.054,16.634,16.634,0,0,0,2.674-.623c.022-.021.075-.011.086-.043-.021-.032-.086-.011-.118-.021-.44-.011-.881-.011-1.321-.032a5.078,5.078,0,0,1-1.633.462,2.593,2.593,0,0,1-1.278-.14.807.807,0,0,1-.354-.354.99.99,0,0,0-.183-.269Z" transform="translate(561.921 449.778)" opacity="0.5"/>
          <path id="path2939" d="M-554.85-423.46h0c.086.247.193.483.3.72a18.719,18.719,0,0,0,3.115,5.005,12.088,12.088,0,0,0,2.03,1.815,11.755,11.755,0,0,0,1.192.763,4.619,4.619,0,0,0,.967.376h.075c-.032.043.075.032.107.054.322.086.634.183.956.247a6.079,6.079,0,0,0,1.4.032,6.017,6.017,0,0,0,.881-.129c.011-.043-.086-.021-.118-.043a2.28,2.28,0,0,1-.741-.226c-.2,0-.43-.011-.655-.022a4.933,4.933,0,0,1-2.374-.569,9.347,9.347,0,0,1-2.922-2.17,22.352,22.352,0,0,1-2.524-3.405c-.183-.279-.4-.548-.58-.827-.376-.526-.73-1.074-1.085-1.611.011-.011,0-.011-.022-.011Z" transform="translate(562.276 449.822)" opacity="0.5"/>
          <path id="path2943" d="M-554.78-423.49c-.021.032.043.043.054.064a26.714,26.714,0,0,0,8,4.307,25.312,25.312,0,0,0,6.563,1.235c.72.043,1.429.032,2.148.011a18.483,18.483,0,0,0,1.89-.193c0-.011.011-.022.011-.032v.021c.032.021.086-.011.129-.011a10.1,10.1,0,0,0,3.942-1.547,7.252,7.252,0,0,0,2.438-2.782,8.353,8.353,0,0,0,.322-.773c.021-.054.021-.054-.011-.011a6.344,6.344,0,0,1-.548.526c-.107.161-.226.333-.344.5-.2.279-.419.559-.559.741a10.558,10.558,0,0,1-1.5,1.267,10.782,10.782,0,0,1-3.813,1.568.081.081,0,0,0-.043.021c-.043-.011-.1.021-.14.021a15.38,15.38,0,0,1-2.8.258,21.914,21.914,0,0,1-6-.9,32.531,32.531,0,0,1-6.993-2.954,5.682,5.682,0,0,0-.58-.269,22.984,22.984,0,0,1-2.116-1.074C-554.758-423.49-554.769-423.5-554.78-423.49Z" transform="translate(562.281 449.819)" opacity="0.5"/>
          <path id="path2947" d="M-527.7-436.99c-.021.032.011.075.021.118.075.236.215.795.279,1.053a2.577,2.577,0,0,1-.247,1.235,6.365,6.365,0,0,1-1.482,1.9,19.689,19.689,0,0,1-3.115,2.288,45.933,45.933,0,0,1-5.005,2.589c-.032.021-.075.021-.1.054h0c-.172.054-.322.14-.494.2-1.386.6-2.782,1.171-4.211,1.654a57.617,57.617,0,0,1-7.229,1.88c-1.439.279-2.889.516-4.339.709-.408.14-.827.258-1.235.387-.021.043.075.011.1.011a36.462,36.462,0,0,0,6.284-.9,60.731,60.731,0,0,0,8.109-2.438q1.8-.677,3.577-1.482c0-.011,0-.021-.011-.021h.064a40.988,40.988,0,0,0,5.532-3,16.221,16.221,0,0,0,2.761-2.234,5.882,5.882,0,0,0,1.246-1.815,2.217,2.217,0,0,0,.161-1.053,1.863,1.863,0,0,0-.462-1.01c-.065-.043-.129-.086-.2-.129Z" transform="translate(562.276 448.819)" opacity="0.5"/>
          <path id="path2951" d="M-561.491-434.49a.9.9,0,0,0-.064.226,6.256,6.256,0,0,0-.2,1.665,5.207,5.207,0,0,0,.043.913.06.06,0,0,0,.032.075.021.021,0,0,0-.011.032,8.2,8.2,0,0,0,1.343,3.33,14.865,14.865,0,0,0,3.061,3.244,22.521,22.521,0,0,0,2.75,1.869c.032.011.032-.021.011-.032-.569-.462-1.128-.956-1.665-1.45-.365-.322-.741-.612-1.106-.934a15.008,15.008,0,0,1-2.879-3.233,8.123,8.123,0,0,1-1.063-2.492c-.032-.107-.043-.2-.075-.311-.011,0-.022-.011-.032-.011h.032c0-.086-.032-.172-.032-.258a7.288,7.288,0,0,1-.032-1.676c0-.161-.032-.322-.043-.483s-.021-.3-.032-.451c-.011-.011-.021-.021-.032-.021Z" transform="translate(561.764 449.004)" opacity="0.5"/>
          <path id="path2953" d="M-551.58-447.29a6.346,6.346,0,0,0-1.858.687.023.023,0,0,0,.021.021h-.054a7.794,7.794,0,0,0-2.6,2.492,12.382,12.382,0,0,0-1.6,3.684,18.018,18.018,0,0,0-.516,3.029c0,.021,0,.021.011.032h-.011c-.032.322-.043.634-.054.956-.011.58-.011,1.16.011,1.74a25.048,25.048,0,0,0,.43,3.566h0c.032.226.1.451.14.688a29.227,29.227,0,0,0,2.535,7.025c.118.226.226.451.355.666.043,0,0-.054,0-.075a23.826,23.826,0,0,1-.784-2.438c-.129-.365-.29-.72-.419-1.085a28.206,28.206,0,0,1-1.3-4.769h-.011c-.064-.4-.129-.795-.183-1.192a21.324,21.324,0,0,1-.226-3.308c0-.58.021-1.171.075-1.751,0-.021-.021-.021-.032-.021h.032c.032-.054.011-.118.022-.172a14.716,14.716,0,0,1,1.439-5.22,9.531,9.531,0,0,1,2.76-3.33c.236-.183.483-.333.72-.494h.011c.182-.086.344-.2.526-.29a1.972,1.972,0,0,0,.408-.247c.064-.054.129-.107.183-.161C-551.558-447.279-551.569-447.29-551.58-447.29Zm-1.74.709h0Z" transform="translate(562.024 448.055)" opacity="0.5"/>
          <path id="path2955" d="M-538.713-448a3.289,3.289,0,0,0-1.063.215,8.612,8.612,0,0,0-2.277,1.364c-.387.311-.752.644-1.117.988,0,.011,0,.011.011.011h-.032c-.612.6-1.192,1.225-1.751,1.869a39.826,39.826,0,0,0-2.718,3.588c-.58.859-1.128,1.751-1.654,2.642a.037.037,0,0,0,.011.021h-.032a54.575,54.575,0,0,0-3.083,6.262l.011.011h-.011a43.044,43.044,0,0,0-1.847,5.467,28.767,28.767,0,0,0-.634,3.008c.032.032.043-.054.054-.064.2-.43.408-.859.612-1.3.107-.279.183-.559.279-.838.6-1.89,1.289-3.759,2.041-5.607.086-.215.183-.44.269-.655l-.011-.011h.011c.043-.086.086-.183.129-.279a64.542,64.542,0,0,1,2.879-5.951.039.039,0,0,0,.011-.032h0a3.116,3.116,0,0,0,.182-.322,35.145,35.145,0,0,1,4.135-5.961,22.389,22.389,0,0,1,1.815-1.826c0-.011-.011-.011-.011-.021h.043a11.053,11.053,0,0,1,2.234-1.547,4.42,4.42,0,0,1,1.944-.526,2.265,2.265,0,0,1,1.085.279c.107.054.2.1.311.14.032-.021-.022-.043-.032-.064a1.844,1.844,0,0,0-.516-.483,1.774,1.774,0,0,0-.644-.3A1.8,1.8,0,0,0-538.713-448Z" transform="translate(562.272 448.002)" opacity="0.5"/>
        </g>
      </g>
      <g id="layer7" transform="translate(0.002 1.119)">
        <g id="g2961">
          <path id="path3669" d="M-527.7-436.99a2.66,2.66,0,0,0,.075.279,1.718,1.718,0,0,1,.354,1.751,7.454,7.454,0,0,1-2.427,2.922,35.837,35.837,0,0,1-7.411,4.275,60.3,60.3,0,0,1-12.954,4.146,34.385,34.385,0,0,1-4.189.548c-.1.032-.537.161-.655.193a27.229,27.229,0,0,0,3.738-.387,58.526,58.526,0,0,0,12.739-3.716,40.849,40.849,0,0,0,8.185-4.393,9.312,9.312,0,0,0,2.954-3.115,2.155,2.155,0,0,0,.118-1.9A1.122,1.122,0,0,0-527.7-436.99Z" transform="translate(562.285 448.817)" fill="#f59"/>
          <path id="path3672" d="M-538.7-448a5.9,5.9,0,0,0-3.169,1.45,25.772,25.772,0,0,0-3.609,3.652,47.278,47.278,0,0,0-6.627,11.139,40.567,40.567,0,0,0-2.739,8.915c0,.032-.054.376-.054.376.032-.054.215-.451.247-.526.2-1.085.462-2.17.773-3.233a52.132,52.132,0,0,1,5.091-11.332,37.123,37.123,0,0,1,6.09-7.949,8.413,8.413,0,0,1,3.491-2.17,2.259,2.259,0,0,1,2.019.473c.161.075.258.107.354.15a2.713,2.713,0,0,0-.408-.451A2.331,2.331,0,0,0-538.7-448Z" transform="translate(562.286 448)" fill="#f59"/>
          <path id="path3674" d="M-551.537-447.29a7.144,7.144,0,0,0-4.619,3.308,15.14,15.14,0,0,0-2.084,7.54,26.924,26.924,0,0,0,3.212,13.265c.387.72.483.967.086-.054l-.193-.58c-.365-.773-.72-1.5-1.01-2.288a26.111,26.111,0,0,1-1.89-9.173,17.42,17.42,0,0,1,.945-6.166,9.22,9.22,0,0,1,3.91-5.059,6.984,6.984,0,0,1,1.45-.634Z" transform="translate(562.038 448.053)" fill="#f59"/>
          <path id="path3676" d="M-561.522-434.37a7.315,7.315,0,0,0-.226,2.556,8.987,8.987,0,0,0,2.352,4.855,18.579,18.579,0,0,0,4.425,3.6c.043.032.311.183.569.333-.612-.5-.763-.645-1.042-.881a21.148,21.148,0,0,1-2.009-1.493,11.408,11.408,0,0,1-3.888-5.4,6.722,6.722,0,0,1-.1-3.2c-.011-.1-.032-.516-.032-.516Z" transform="translate(561.776 449)" fill="#f59"/>
          <path id="path3678" d="M-559.575-423.973a.586.586,0,0,0,.247.795.528.528,0,0,0,.075.032,4.213,4.213,0,0,0,2.191.054,16.616,16.616,0,0,0,2.492-.634.582.582,0,0,0-.193,0,13.963,13.963,0,0,1-3.7.58c-.666-.011-.988-.258-1.053-.655a.865.865,0,0,1,0-.236c0-.011-.011-.022-.021-.043l-.043.107Z" transform="translate(561.934 449.773)" fill="#f59"/>
          <path id="path3680" d="M-554.91-423.57c.064.161.193.462.215.5a17.249,17.249,0,0,0,4.243,6.337A8.468,8.468,0,0,0-547-414.687a5.079,5.079,0,0,0,1.7.29,5.955,5.955,0,0,0,1.514-.172c-.075-.011-.387-.064-.4-.064a5.353,5.353,0,0,1-1.1.054,6.27,6.27,0,0,1-2.965-.849,14.257,14.257,0,0,1-5.51-6.069c-.172-.333-.537-1.106-.6-1.214C-554.545-423.011-554.77-423.366-554.91-423.57Z" transform="translate(562.285 449.811)" fill="#f59"/>
          <path id="path3682" d="M-554.91-423.57c.172.161.623.494.806.623a25.5,25.5,0,0,0,12.889,5.005,20.619,20.619,0,0,0,4.071.032,9.84,9.84,0,0,0,6.176-2.556,6.844,6.844,0,0,0,1.729-2.75c-.054.054-.215.236-.269.29a8.078,8.078,0,0,1-1.3,1.923,9.913,9.913,0,0,1-6.294,2.879,22.7,22.7,0,0,1-10.935-1.74,34.983,34.983,0,0,1-6.133-3.265c-.075-.064-.494-.29-.741-.44Z" transform="translate(562.285 449.811)" fill="#f59"/>
          <path id="path3684" d="M-554.833-423.57a16.642,16.642,0,0,0-1.01,3.1,3.584,3.584,0,0,0,.022,1.815,1.06,1.06,0,0,0,1.063.5,1.06,1.06,0,0,0-.15-.1,1.528,1.528,0,0,1-.376-.118,1.115,1.115,0,0,1-.516-1.063,5.324,5.324,0,0,1,.15-1.235,12.106,12.106,0,0,1,.72-2.213C-554.9-423.119-554.865-423.344-554.833-423.57Z" transform="translate(562.208 449.811)" fill="#f59"/>
        </g>
      </g>
      <g id="layer5" transform="translate(0 0)">
        <path id="path3647-4" d="M-561.448-433.56c-1.633,5.2,3.212,9.409,7.046,11.579-.741-.032-4.909.107-5.832-1.439C-562.038-427.223-561.974-432.583-561.448-433.56Z" transform="translate(561.773 449.076)" fill="#dedede"/>
        <g id="g3170" transform="translate(0.303 0.008)">
          <path id="path3710-7" d="M-527.972-435.66c.526.247.688,1.128.688,1.343-.086,4.952-17.583,12.363-27.906,12.75,6.96,4.135,19.839,5.8,25.349.677,1.547-1.439,4.05-6.488,2.535-13.512A1.456,1.456,0,0,0-527.972-435.66Z" transform="translate(562.258 448.913)" fill="#dedede"/>
          <path id="path3681-1" d="M-555.18-421.535c7.616-2.138,24.157-11.053,26.66-15.521a.844.844,0,0,0,.1-.559c-.021-.795-2.9-5.65-6.885-7.863a.861.861,0,0,0-.494-.011c-1.686.354-4.726,2.739-8.206,6.821a72.809,72.809,0,0,0-11.171,17.132" transform="translate(562.258 448.182)" fill="#dedede"/>
          <path id="path3714-4" d="M-529.508-422.207c-.977,2.836-3.835,5.371-9.5,5.392a25.737,25.737,0,0,1-16.187-5.725c2.234,3.448,5.779,8.6,11.858,9.076,2.127.161,6.133-1.343,7.906-2.47,3.018-1.912,5.532-4.49,5.918-6.273" transform="translate(562.258 449.885)" fill="#dedede"/>
          <path id="path3738-0" d="M-544.037-413.539a4.657,4.657,0,0,1-.655.118,5.784,5.784,0,0,1-1.923-.064,6.652,6.652,0,0,1-2.857-1.257c-3.534-2.385-5.124-6.5-5.7-7.8-.44,3.072-.236,5.8,1.3,6.681a18.127,18.127,0,0,0,5.607,2.18,13.281,13.281,0,0,0,2.052.29,5.021,5.021,0,0,0,.7.011A6.267,6.267,0,0,0-544.037-413.539Z" transform="translate(562.244 449.885)" fill="#dedede"/>
          <path id="path3623-9" d="M-554.758-417.116a1.093,1.093,0,0,1-.977-.365,1.931,1.931,0,0,1-.215-1.171,13.483,13.483,0,0,1,1.106-3.878c-1.171.387-4.264,1.235-4.973.354.011.021-.075-.107-.011,0a19.821,19.821,0,0,0,2.664,3.448,11.406,11.406,0,0,0,1.171,1.106,1.562,1.562,0,0,0,1.235.5" transform="translate(561.912 449.886)" fill="#dedede"/>
          <path id="path3671-8" d="M-551.566-446.25c-6.928,1.353-9.334,13.534-3.126,24.78-4.264-3.4-6.95-7.4-7.078-11.579C-561.19-439.913-554.359-446.067-551.566-446.25Z" transform="translate(561.77 448.128)" fill="#dedede"/>
          <path id="path3689-2" d="M-536.974-445.927c-1.912-2.61-5.994.365-10.118,6.08-3.437,4.758-6.96,12.095-7.959,18.5-2.449-6.015-3.867-19.13,3.126-24.769,4.812-3.341,13.609-1.493,14.737-.043C-537.124-446.1-537.221-446.217-536.974-445.927Z" transform="translate(562.119 447.998)" fill="#dedede"/>
        </g>
        <g id="g3198" transform="translate(0.001)">
          <path id="path3746" d="M-544.219-448a12.57,12.57,0,0,0-7.057,1.912c-6.993,5.757-5.575,19.13-3.126,25.253.988-6.52,4.522-14.007,7.959-18.862,3.534-4.984,7.036-7.927,9.162-7A16.859,16.859,0,0,0-544.219-448Zm6.939,1.31a3.347,3.347,0,0,1,.526.333,2.193,2.193,0,0,0-.526-.333ZM-554.4-420.824c7.616-2.18,24.157-11.268,26.66-15.822a.875.875,0,0,0,.1-.569c-.022-.806-2.9-5.768-6.885-8.024a.861.861,0,0,0-.494-.011c-1.686.365-4.726,2.793-8.206,6.95A74.53,74.53,0,0,0-554.4-420.824Zm0,0c6.96,4.221,19.839,5.908,25.349.687a3.214,3.214,0,0,0,.322-.344c1.536-1.815,3.609-6.735,2.223-13.394v.043c-.075,5.048-17.573,12.6-27.895,13.008Zm0,0c2.137,3.373,5.489,8.346,11.128,9.173.236.032.483.064.73.086,2.127.172,6.133-1.375,7.906-2.513,3.018-1.955,5.532-4.565,5.918-6.391-.977,2.889-3.845,5.467-9.5,5.5a25.527,25.527,0,0,1-16.187-5.854Zm0,0c-.44,3.136-.236,5.908,1.3,6.821a17.96,17.96,0,0,0,5.607,2.223,14.765,14.765,0,0,0,2.052.3,5.048,5.048,0,0,0,.7.011,4.174,4.174,0,0,1-1.1-.107,6.688,6.688,0,0,1-2.857-1.278c-3.534-2.46-5.113-6.649-5.7-7.97Zm0,0c-1.171.4-4.264,1.257-4.973.365.011.011-.075-.118-.011,0a19.764,19.764,0,0,0,2.664,3.512,14.367,14.367,0,0,0,1.16,1.128,3.354,3.354,0,0,0,.5.365.981.981,0,0,1-.258-.215,2,2,0,0,1-.215-1.192,14.829,14.829,0,0,1,1.128-3.963Zm0,0c-3.265-1.88-7.25-5.263-7.368-9.5a19.591,19.591,0,0,0,1.536,8.024c.924,1.579,5.091,1.439,5.832,1.472Zm0,0c-6.208-11.45-3.8-23.889,3.136-25.253-2.782.183-9.613,6.466-10.2,13.448v.054a4.241,4.241,0,0,0-.236,1.1,7.564,7.564,0,0,1,.236-1.063c.161,4.221,2.836,8.26,7.068,11.719Zm-7.3-10.666a7.133,7.133,0,0,0-.064,1.171c.011-.44.032-.827.064-1.171Zm18.432,19.828a5.711,5.711,0,0,1-.956.15l.3-.032A4.4,4.4,0,0,0-543.273-411.662Zm16.778-22.213a2.294,2.294,0,0,0-.086-.473,2.768,2.768,0,0,1,.086.43Zm-10.2-12.438a.618.618,0,0,0,.086.075.308.308,0,0,1-.086-.075Zm.118.107a.461.461,0,0,1,.064.075c.054.064-.043-.054.2.247-.086-.107-.183-.215-.268-.322Zm9.5,11.053a1.239,1.239,0,0,1,.279.3,1.239,1.239,0,0,0-.279-.3Zm.279.3a.228.228,0,0,0,.043.064.226.226,0,0,1-.043-.064Zm.075.129a.993.993,0,0,1,.054.107.335.335,0,0,1-.054-.107Zm.054.107c.011.032.032.075.043.107a.44.44,0,0,1-.043-.107Zm.043.107.032.1a.173.173,0,0,1-.032-.1Zm-28.26,19.119a.912.912,0,0,0,.408.1.911.911,0,0,1-.408-.1Z" transform="translate(561.773 448.006)" fill="url(#radial-gradient-4)"/>
          <path id="path3907" d="M-544.219-448a12.57,12.57,0,0,0-7.057,1.912c-6.993,5.757-5.575,19.13-3.126,25.253.988-6.52,4.522-14.007,7.959-18.862,3.534-4.984,7.036-7.927,9.162-7A16.859,16.859,0,0,0-544.219-448Zm6.939,1.31a3.347,3.347,0,0,1,.526.333,2.193,2.193,0,0,0-.526-.333ZM-554.4-420.824c7.616-2.18,24.157-11.268,26.66-15.822a.875.875,0,0,0,.1-.569c-.022-.806-2.9-5.768-6.885-8.024a.861.861,0,0,0-.494-.011c-1.686.365-4.726,2.793-8.206,6.95A74.53,74.53,0,0,0-554.4-420.824Zm0,0c6.96,4.221,19.839,5.908,25.349.687a3.214,3.214,0,0,0,.322-.344c1.536-1.815,3.609-6.735,2.223-13.394v.043c-.075,5.048-17.573,12.6-27.895,13.008Zm0,0c2.137,3.373,5.489,8.346,11.128,9.173.236.032.483.064.73.086,2.127.172,6.133-1.375,7.906-2.513,3.018-1.955,5.532-4.565,5.918-6.391-.977,2.889-3.845,5.467-9.5,5.5a25.527,25.527,0,0,1-16.187-5.854Zm0,0c-.44,3.136-.236,5.908,1.3,6.821a17.96,17.96,0,0,0,5.607,2.223,14.765,14.765,0,0,0,2.052.3,5.048,5.048,0,0,0,.7.011,4.174,4.174,0,0,1-1.1-.107,6.688,6.688,0,0,1-2.857-1.278c-3.534-2.46-5.113-6.649-5.7-7.97Zm0,0c-1.171.4-4.264,1.257-4.973.365.011.011-.075-.118-.011,0a19.764,19.764,0,0,0,2.664,3.512,14.367,14.367,0,0,0,1.16,1.128,3.354,3.354,0,0,0,.5.365.981.981,0,0,1-.258-.215,2,2,0,0,1-.215-1.192,14.829,14.829,0,0,1,1.128-3.963Zm0,0c-3.265-1.88-7.25-5.263-7.368-9.5a19.591,19.591,0,0,0,1.536,8.024c.924,1.579,5.091,1.439,5.832,1.472Zm0,0c-6.208-11.45-3.8-23.889,3.136-25.253-2.782.183-9.613,6.466-10.2,13.448v.054a4.241,4.241,0,0,0-.236,1.1,7.564,7.564,0,0,1,.236-1.063c.161,4.221,2.836,8.26,7.068,11.719Zm-7.3-10.666a7.133,7.133,0,0,0-.064,1.171c.011-.44.032-.827.064-1.171Zm18.432,19.828a5.711,5.711,0,0,1-.956.15l.3-.032A4.4,4.4,0,0,0-543.273-411.662Zm16.778-22.213a2.294,2.294,0,0,0-.086-.473,2.768,2.768,0,0,1,.086.43Zm-10.2-12.438a.618.618,0,0,0,.086.075.308.308,0,0,1-.086-.075Zm.118.107a.461.461,0,0,1,.064.075c.054.064-.043-.054.2.247-.086-.107-.183-.215-.268-.322Zm9.5,11.053a1.239,1.239,0,0,1,.279.3,1.239,1.239,0,0,0-.279-.3Zm.279.3a.228.228,0,0,0,.043.064.226.226,0,0,1-.043-.064Zm.075.129a.993.993,0,0,1,.054.107.335.335,0,0,1-.054-.107Zm.054.107c.011.032.032.075.043.107a.44.44,0,0,1-.043-.107Zm.043.107.032.1a.173.173,0,0,1-.032-.1Zm-28.26,19.119a.912.912,0,0,0,.408.1.911.911,0,0,1-.408-.1Z" transform="translate(561.773 448.006)" opacity="0.5" fill="url(#radial-gradient-5)"/>
        </g>
      </g>
      <g id="layer2" transform="translate(46.22 12.96)">
        <g id="g3836">
          <path id="path3817" d="M-559.054-447.926a14.145,14.145,0,0,1,4.7.344c-.075.666-.14,1.332-.226,1.987l-2.621-.258a2.631,2.631,0,0,0-1.321.086,1.068,1.068,0,0,0-.591.73,1.4,1.4,0,0,0,.043,1.063,1.854,1.854,0,0,0,.967.612,11.773,11.773,0,0,1,3.1,1.053,2.29,2.29,0,0,1,.849,1.01,4.031,4.031,0,0,1,.14,2.363,3.557,3.557,0,0,1-.268.806,2.97,2.97,0,0,1-1.74,1.579,5.776,5.776,0,0,1-2.771.2l-2.922-.44c.129-.73.258-1.472.4-2.213a27.28,27.28,0,0,0,3.631.473,1.064,1.064,0,0,0,.795-.236,1.511,1.511,0,0,0,.354-.913.915.915,0,0,0-.3-.849,3.531,3.531,0,0,0-1.332-.5,5.737,5.737,0,0,1-2.632-1.042,3.269,3.269,0,0,1-.956-2.352,3.293,3.293,0,0,1,.58-2.073A2.982,2.982,0,0,1-559.054-447.926Z" transform="translate(561.755 447.989)" fill="#d5307f"/>
          <path id="path3819" d="M-550.5-447.8h3.351q1.74,5.687,3.469,11.386c-.892-.011-1.783.011-2.664-.011-.2-.773-.419-1.536-.612-2.3h-3.727l-.623,2.309h-2.664q1.74-5.7,3.469-11.386m.354,7.089h2.653c-.44-1.633-.881-3.276-1.321-4.919C-549.276-444-549.706-442.354-550.146-440.711Z" transform="translate(562.332 448.003)" fill="#d5307f"/>
          <path id="path3821" d="M-545.09-447.8h8.711v2.288h-3.061c-.011,3.029,0,6.058,0,9.1h-2.589v-9.1h-3.061V-447.8Z" transform="translate(562.991 448.003)" fill="#d5307f"/>
          <path id="path3823" d="M-531.288-447.417a.337.337,0,0,1,.2-.043h2.352v11.01c-.827,0-1.654.011-2.481-.011v-8.26l-1.783,1.1c-.408-.677-.816-1.353-1.225-2.019q1.45-.87,2.932-1.772Z" transform="translate(563.796 448.028)" fill="#d5307f"/>
          <path id="path3825" d="M-536.75-439.89h2.6V-437h-2.6Z" transform="translate(563.609 448.589)" fill="#d5307f"/>
        </g>
      </g>
    </g>
    <g id="Group_33493" data-name="Group 33493" transform="translate(186.059 7.754)">
      <path id="welt_der_wunder" d="M181.432,38.566h-.247a.343.343,0,0,0-.3.172l-.462.913v1.912l1.31-2.524a.624.624,0,0,0,.054-.226.2.2,0,0,0-.086-.183.5.5,0,0,0-.269-.064m-7.25,0h-.247q-.354,0-.354.258a.679.679,0,0,0,.054.226l1.611,3.2a.534.534,0,0,0,.236.226.649.649,0,0,0,.322.075.72.72,0,0,0,.333-.075.651.651,0,0,0,.215-.2l1.332-2.47,1.31,2.47a.442.442,0,0,0,.215.2.89.89,0,0,0,.311.064.833.833,0,0,0,.322-.075.47.47,0,0,0,.226-.2l.15-.279V40.069l-.677,1.332-1.332-2.46a.487.487,0,0,0-.215-.226.684.684,0,0,0-.29-.075.55.55,0,0,0-.3.086.419.419,0,0,0-.215.215l-1.343,2.46-1.353-2.642-.129-.129-.183-.064m6.241,1.085-.2.408v1.912l.2-.4V39.65m0,0-.2.408v1.912l.2-.4V39.65m5.478-1.085h-1.665a3.032,3.032,0,0,0-1.568.344,1.06,1.06,0,0,0-.569.934v1.482a1.15,1.15,0,0,0,.494.913,1.638,1.638,0,0,0,.645.279,5.427,5.427,0,0,0,1.031.1h.569a.3.3,0,0,0,.333-.344V42.2a.292.292,0,0,0-.333-.333h-.666q-1.16,0-1.16-.838h4.425a.18.18,0,0,0,.183-.107.483.483,0,0,0,.064-.258v-.977a.946.946,0,0,0-.548-.849,2.533,2.533,0,0,0-1.235-.269m-2.911,1.686v-.473c0-.15.129-.269.408-.365a3.188,3.188,0,0,1,.934-.107h1.3a2.217,2.217,0,0,1,.838.129c.247.086.354.183.354.3v.5l-3.835.011m6.305-2.782h-.226c-.226,0-.333.107-.333.322v4.468a.3.3,0,0,0,.333.344h.226c.226,0,.322-.118.322-.344V37.792c0-.226-.1-.322-.322-.322m2.309,0h-.236c-.226,0-.333.107-.333.322v.795h-.311a.292.292,0,0,0-.333.333v.086a.292.292,0,0,0,.333.333h.311v2.932a.3.3,0,0,0,.333.344h.236c.226,0,.322-.118.322-.344V39.339h1.407a.292.292,0,0,0,.333-.333V38.92a.292.292,0,0,0-.333-.333h-1.407v-.795c0-.226-.1-.322-.322-.322m10.537,0h-.226a.3.3,0,0,0-.333.333V38.6h-2.653a2.969,2.969,0,0,0-1.622.365,1.007,1.007,0,0,0-.483.892l-.011,1.611a.867.867,0,0,0,.43.784,3.16,3.16,0,0,0,1.7.365H200.3a2.953,2.953,0,0,0,1.643-.408,1,1,0,0,0,.526-.838V37.8c-.011-.226-.118-.333-.333-.333m-3.212,4.393a2.536,2.536,0,0,1-.956-.118.43.43,0,0,1-.269-.44V39.865a.4.4,0,0,1,.279-.387,2.381,2.381,0,0,1,.913-.129h2.675v2.019c0,.15-.107.279-.344.365a2.822,2.822,0,0,1-1.031.14h-1.267m8.346-3.308H205.61a2.964,2.964,0,0,0-1.558.344,1.071,1.071,0,0,0-.58.934v1.482a1.134,1.134,0,0,0,.5.913,1.637,1.637,0,0,0,.644.279,5.338,5.338,0,0,0,1.031.1h.569c.226,0,.322-.118.322-.344V42.2c0-.226-.107-.333-.322-.333h-.666q-1.16,0-1.16-.838h4.425a.2.2,0,0,0,.193-.107.607.607,0,0,0,.064-.258v-.977a.958.958,0,0,0-.559-.849,2.548,2.548,0,0,0-1.246-.269m-2.911,1.686v-.473c0-.15.129-.269.408-.365a3.093,3.093,0,0,1,.935-.107H207a2.275,2.275,0,0,1,.849.129c.236.086.354.183.354.3v.5l-3.835.011m8.056-1.686h-.344a2.629,2.629,0,0,0-1.429.333,1.064,1.064,0,0,0-.526.924l-.011,2.449c0,.226.107.344.322.344h.247c.215,0,.322-.118.322-.344V39.822a.383.383,0,0,1,.193-.354,1.611,1.611,0,0,1,.806-.15h.408a.307.307,0,0,0,.344-.344v-.086a.293.293,0,0,0-.333-.322m12.041,0h-.247a.326.326,0,0,0-.29.172l-1.353,2.642-1.332-2.46a.487.487,0,0,0-.215-.226.726.726,0,0,0-.29-.075.55.55,0,0,0-.3.086.419.419,0,0,0-.215.215l-1.343,2.46-1.353-2.642-.129-.129-.172-.043h-.247c-.236,0-.365.086-.365.258a.729.729,0,0,0,.064.226l1.611,3.2a.57.57,0,0,0,.226.226.69.69,0,0,0,.333.075.649.649,0,0,0,.322-.075.5.5,0,0,0,.215-.2l1.343-2.47,1.31,2.47a.468.468,0,0,0,.2.2,1.011,1.011,0,0,0,.322.064.832.832,0,0,0,.322-.075.47.47,0,0,0,.226-.2l1.665-3.2a.625.625,0,0,0,.054-.226.188.188,0,0,0-.1-.183.369.369,0,0,0-.269-.086m6.2,0h-.236a.292.292,0,0,0-.333.333v2.513c0,.15-.107.258-.344.333a2.649,2.649,0,0,1-.913.118H227.5a2.948,2.948,0,0,1-.934-.118c-.226-.086-.344-.2-.344-.344V38.9c0-.226-.107-.333-.322-.333h-.226a.292.292,0,0,0-.333.333v2.5a.982.982,0,0,0,.419.838,3.136,3.136,0,0,0,1.751.376h1.332a3.1,3.1,0,0,0,1.643-.365.953.953,0,0,0,.5-.849V38.9a.3.3,0,0,0-.333-.333m4.919,0h-1.461a3.232,3.232,0,0,0-1.568.3.913.913,0,0,0-.462.838v2.556c0,.226.107.344.322.344h.226a.3.3,0,0,0,.333-.344V39.693c0-.15.1-.269.3-.322a3.934,3.934,0,0,1,.859-.054h1.45a3.158,3.158,0,0,1,.838.064c.2.054.29.161.29.322v2.567c0,.226.107.344.322.344h.247c.226,0,.322-.118.322-.344V39.7a.893.893,0,0,0-.5-.838,2.809,2.809,0,0,0-1.515-.3m8.507-1.1h-.226c-.215,0-.322.107-.322.333V38.6h-2.664a3,3,0,0,0-1.622.365,1.007,1.007,0,0,0-.483.892l-.011,1.611a.867.867,0,0,0,.43.784,3.186,3.186,0,0,0,1.7.365h1.364a2.953,2.953,0,0,0,1.643-.408,1.026,1.026,0,0,0,.526-.838V37.8a.3.3,0,0,0-.333-.333m-3.212,4.393a2.573,2.573,0,0,1-.956-.118.437.437,0,0,1-.258-.44V39.865a.4.4,0,0,1,.269-.387,2.381,2.381,0,0,1,.913-.129h2.675v2.019c0,.15-.118.279-.344.365a2.86,2.86,0,0,1-1.031.14h-1.267m8.346-3.308h-1.665a3.032,3.032,0,0,0-1.568.344,1.071,1.071,0,0,0-.58.934v1.482a1.164,1.164,0,0,0,.5.913,1.637,1.637,0,0,0,.644.279,5.428,5.428,0,0,0,1.031.1h.569c.226,0,.322-.118.322-.344V42.2c0-.226-.107-.333-.322-.333h-.666q-1.16,0-1.16-.838h4.425a.18.18,0,0,0,.183-.107A.483.483,0,0,0,251,40.66v-.977a.966.966,0,0,0-.548-.849,2.477,2.477,0,0,0-1.235-.269m-2.9,1.686v-.473c0-.15.129-.269.408-.365a3.14,3.14,0,0,1,.934-.107h1.3a2.217,2.217,0,0,1,.838.129c.247.086.354.183.354.3v.5l-3.835.011m8.056-1.686h-.354a2.565,2.565,0,0,0-1.418.333,1.041,1.041,0,0,0-.526.924l-.011,2.449a.3.3,0,0,0,.333.344h.247a.3.3,0,0,0,.333-.344V39.822a.4.4,0,0,1,.183-.354,1.611,1.611,0,0,1,.806-.15h.408a.3.3,0,0,0,.333-.344v-.086a.3.3,0,0,0-.333-.322" transform="translate(-173.58 -5.547)"/>
      <path id="Logo" d="M212.337,7.75a14.3,14.3,0,1,0,14.3,14.307,14.309,14.309,0,0,0-14.3-14.307m0,27.562a13.255,13.255,0,1,1,13.255-13.255,13.248,13.248,0,0,1-13.255,13.255m0-25.5a12.153,12.153,0,0,0-6.66,1.966l3.255,2.9,3.4-3.04,3.4,3.04,3.255-2.9a12.153,12.153,0,0,0-6.66-1.966m9.957,5.124-6.552,5.843-3.4-3.051-3.4,3.051-6.552-5.843a12.18,12.18,0,0,0-2.277,7.121h24.479a12.215,12.215,0,0,0-2.288-7.121m-3.136,8.819-3.4,3.04-3.4-3.04-3.4,3.04-3.416-3.04-3.4,3.051,6.831,6.08,3.4-3.04,3.4,3.04L222.6,26.8l-3.437-3.051" transform="translate(-171.768 -7.75)" fill="#b4152b"/>
    </g>
    <path id="path2" d="M323.589,20.742h-5.167V16.886h14.662v3.856h-5.156V34.534h-4.339ZM308.97,16.886h4.339V30.678h7.54v3.856H308.97ZM305.877,32.31l-.054.054a10.1,10.1,0,0,1-7.25,2.556c-5.371,0-8.98-3.684-8.98-9.152,0-5.542,3.512-9.259,8.743-9.259,5.005,0,8.389,3.695,8.41,9.195a13.766,13.766,0,0,1-.086,1.59H294.287l.043.2a4.239,4.239,0,0,0,4.522,3.588,6.631,6.631,0,0,0,4.329-1.622l.054-.043,2.642,2.889Zm-3.684-8.239-.043-.2c-.494-2.266-1.826-3.469-3.845-3.469-2.105,0-3.48,1.2-3.974,3.469l-.043.2Zm-20.344,5.51-3.459-12.7h-4.672l-3.459,12.675-3.3-12.675H262.45l4.984,17.648h5.231l3.362-11.418,3.362,11.418h5.231L289.6,16.886h-4.447Z" transform="translate(19.066 0.653)" fill="#0f1d46"/>
    <g id="GALILEO_3_" transform="translate(366.49 7.7)">
      <path id="kreis_8_" d="M378.768,26.3a18.6,18.6,0,1,1-18.6-18.6A18.6,18.6,0,0,1,378.768,26.3Z" transform="translate(-341.56 -7.7)" fill="url(#linear-gradient)"/>
      <path id="ellipse_11_" d="M378.382,22.294c.741,4.1-6.831,8.9-16.907,10.72s-18.851-.043-19.592-4.146,6.831-8.9,16.907-10.72S377.641,18.191,378.382,22.294Z" transform="translate(-341.54 -6.977)" fill="url(#linear-gradient-2)"/>
      <path id="galileo_8_" d="M355.142,22.9a2.214,2.214,0,0,1,.666,1.611v3.727h-1.16V24.5a1.1,1.1,0,0,0-1.106-1.106H352.1A1.1,1.1,0,0,0,351,24.5v1.45a1.071,1.071,0,0,0,.333.795,1.048,1.048,0,0,0,.784.333h1.772v1.16H352.1a2.173,2.173,0,0,1-1.6-.666,2.215,2.215,0,0,1-.666-1.611v-1.45a2.274,2.274,0,0,1,2.277-2.277h1.429A2.166,2.166,0,0,1,355.142,22.9Zm4.468.5h1.16v-1.16h-1.16Zm0,4.834h1.16V24.024h-1.16Zm-2.481,0h1.16V22.252h-1.16Zm4.952,0h1.16V22.252h-1.16Zm4.286-2.428H370.4V24.013a1.8,1.8,0,0,0-1.783-1.783H366.7a2.274,2.274,0,0,0-2.277,2.277v1.45a2.274,2.274,0,0,0,2.277,2.277h3.222v-1.16H366.7a1.088,1.088,0,0,1-.795-.333,1.114,1.114,0,0,1-.333-.795V24.5a1.079,1.079,0,0,1,.322-.784,1.038,1.038,0,0,1,.784-.322H368.6a.584.584,0,0,1,.44.183.569.569,0,0,1,.183.44v.634h-2.879l.021,1.16Zm10.956-1.3v1.45a2.274,2.274,0,0,1-2.266,2.277h-1.439a2.274,2.274,0,0,1-2.277-2.277v-1.45a2.274,2.274,0,0,1,2.277-2.277h1.429a2.274,2.274,0,0,1,2.277,2.277Zm-1.16-.011a1.079,1.079,0,0,0-.322-.784,1.038,1.038,0,0,0-.784-.322h-1.439a1.062,1.062,0,0,0-.784.322,1.038,1.038,0,0,0-.322.784v1.45a1.071,1.071,0,0,0,.333.795,1.055,1.055,0,0,0,.795.333h1.439a1.048,1.048,0,0,0,.784-.333,1.061,1.061,0,0,0,.322-.795l-.021-1.45Zm-29.732.161h2.352v1.794A1.8,1.8,0,0,1,347,28.234h-1.923a2.274,2.274,0,0,1-2.277-2.277v-1.45a2.274,2.274,0,0,1,2.277-2.277H348.3v1.16h-3.222a1.088,1.088,0,0,0-.795.333,1.071,1.071,0,0,0-.333.795v1.45a1.079,1.079,0,0,0,.322.784,1.038,1.038,0,0,0,.784.322h1.923a.584.584,0,0,0,.44-.183.569.569,0,0,0,.183-.44v-.634h-1.192l.021-1.16Z" transform="translate(-341.468 -6.623)" fill="#fff"/>
    </g>
  </g>
</svg>
