<svg xmlns="http://www.w3.org/2000/svg" width="632.2" height="23.3" viewBox="0 0 632.2 23.3">
  <g id="Group_33429" data-name="Group 33429" transform="translate(-426 -706.7)">
    <path id="Forbes_logo-white" d="M44.2,7.1A62.2,62.2,0,0,1,44.4.8l-6,1.1v.5H39a1.934,1.934,0,0,1,.9.5,3.374,3.374,0,0,1,.4,1.2c0,1.1.2,3.7.1,7.7,0,4,0,6.5-.1,7.5a22.566,22.566,0,0,0,5.1.7,7.568,7.568,0,0,0,5.5-2,7.568,7.568,0,0,0,2-5.5,6.369,6.369,0,0,0-1.5-4.6,4.781,4.781,0,0,0-3.8-1.8,6.317,6.317,0,0,0-3.2.8Zm.1,12c0-1.2-.2-5-.2-11.1a5.212,5.212,0,0,1,1.4-.2,2.506,2.506,0,0,1,2.2,1.4,7.667,7.667,0,0,1,.8,3.6,11.791,11.791,0,0,1-.9,4.6,2.7,2.7,0,0,1-2.4,1.8,4.4,4.4,0,0,1-1-.2ZM16,1.2H.4V2h.8c.6.2,1.1.4,1.3.8A3.967,3.967,0,0,1,3,4.7,76.05,76.05,0,0,1,3,16.4a3.09,3.09,0,0,1-.5,1.9,1.858,1.858,0,0,1-1.3.7H.4v.9H10.5v-.8H9.4a1.493,1.493,0,0,1-.7-.3,2.651,2.651,0,0,1-.6-.5,3.967,3.967,0,0,1-.5-1.9c-.1-1.6-.2-3.3-.2-5.3H9.5c1.1,0,1.9.9,2.3,2.6h.8V7.4h-.8c-.4,1.7-1.1,2.5-2.3,2.6H7.4a71.2,71.2,0,0,1,.2-7.5h3.1q3.3,0,4.5,4.2l.9-.3-.2-5.2ZM14.2,13.1a7.563,7.563,0,0,0,1.7,5A6.123,6.123,0,0,0,20.8,20a6.932,6.932,0,0,0,5.1-2,7.138,7.138,0,0,0,1.8-5A7.563,7.563,0,0,0,26,8a6.123,6.123,0,0,0-4.9-1.9,6.932,6.932,0,0,0-5.1,2,7.138,7.138,0,0,0-1.8,5Zm8.7-4.4a10.958,10.958,0,0,1,.7,4.4c0,4.1-.9,6.1-2.5,6.1s-1.5-.6-2-1.8a11.279,11.279,0,0,1-.7-4.4c0-4.1.9-6.1,2.5-6.1.9,0,1.5.5,2,1.7Zm32.9,9.5a6.555,6.555,0,0,0,4.9,1.9,4.85,4.85,0,0,0,3.2-.7,5.633,5.633,0,0,0,2.2-1.8l-.4-.5a4.533,4.533,0,0,1-3,1,4.649,4.649,0,0,1-3.6-1.6,6.069,6.069,0,0,1-1.2-4.1h8.3a7.409,7.409,0,0,0-1.4-4.6A4.964,4.964,0,0,0,60.7,6a6.943,6.943,0,0,0-5.1,2.1,7.312,7.312,0,0,0-1.8,5A6.405,6.405,0,0,0,55.7,18Zm2.9-9.8A1.971,1.971,0,0,1,60.4,7q1.8,0,1.8,4.5H58.1a6.7,6.7,0,0,1,.7-3.1ZM76.8,6.8a9.554,9.554,0,0,0-4-.7,6.053,6.053,0,0,0-3.9,1.2,3.694,3.694,0,0,0-1.5,3,2.822,2.822,0,0,0,.9,2.4A6.837,6.837,0,0,0,71,14.2a9.87,9.87,0,0,1,2.3,1.1,1.933,1.933,0,0,1,0,2.8,2.111,2.111,0,0,1-1.6.6c-1.7,0-3-1.2-3.9-3.7l-.7.2.2,3.9a14.034,14.034,0,0,0,4.7.8,6.757,6.757,0,0,0,4.2-1.2,4,4,0,0,0,1.5-3.3,2.751,2.751,0,0,0-.7-2.3,6.336,6.336,0,0,0-2.5-1.6,11.275,11.275,0,0,1-2.7-1.3,1.746,1.746,0,0,1-.7-1.4,2.389,2.389,0,0,1,.5-1.4,1.656,1.656,0,0,1,1.3-.5c1.6,0,2.7,1.1,3.4,3.3L77,10l-.2-3.3ZM39.3,6.5a3.425,3.425,0,0,0-1.8-.4,3.95,3.95,0,0,0-2.1.8,5.148,5.148,0,0,0-1.7,2.3V6.1L27.8,7.3v.5h.6c.7.1,1.2.7,1.2,1.8a49.441,49.441,0,0,1,0,7.7c0,1-.5,1.6-1.2,1.7h-.6v.8h8.3v-.7H35a1.628,1.628,0,0,1-1.2-1.8,34.639,34.639,0,0,1,0-7.2c.2-.4.7-.6,1.5-.7a5.356,5.356,0,0,1,2.6.7l1.4-3.6Z" transform="translate(425.6 707.9)" fill="#fff"/>
    <path id="JOE_Logo_white" d="M2.5,4.8V.4H9.2V17.9s0,5.7-5.6,5.7S.4,23,.4,23V18.8S4.8,20.2,4.8,17V4.8H2.5ZM19.2,18a1.2,1.2,0,0,1-2.4,0V6a1.2,1.2,0,0,1,2.4,0ZM18.4.4h-.7a5.357,5.357,0,0,0-5.4,5.3V18.4a5.357,5.357,0,0,0,5.4,5.3h.7a5.357,5.357,0,0,0,5.4-5.3V5.7A5.357,5.357,0,0,0,18.4.4Zm8.4,0V23.6h8.8V19.2H31.3V13.9h2.1V9.7H31.3V4.8h4.3V.4Z" transform="translate(532.111 706.3)" fill="#fff"/>
    <g id="Metro_UK_white" transform="translate(595.2 708.1)">
      <path id="Path_43836" data-name="Path 43836" d="M3.5,1.1H7.4l3.3,7.3,3.4-7.3H18l2.5,18.7H15.6l-1.1-7.7h0l-3.7,7.8L7.1,12.1h0L6,19.8H.8Z" fill="#fff"/>
      <path id="Path_43837" data-name="Path 43837" d="M22,1.1h9.9L32.6,6H26.8V8h3.8v4.9H26.8v2h6.5L32,19.8H21.9V1.1Z" fill="#fff"/>
      <path id="Path_43838" data-name="Path 43838" d="M34,1.1H45.4l.5,4.7H42.1v14H37.3V5.9H33.5L34,1.2Z" fill="#fff"/>
      <path id="Path_43839" data-name="Path 43839" d="M47.3,1.1h6.4a6.438,6.438,0,0,1,4.5,1.5,5.8,5.8,0,0,1,1.7,4.5,5.111,5.111,0,0,1-2.5,4.6L61,19.8H55.5l-3.3-7.7h0v7.7H47.4V1.1Zm4.8,8.8a4.473,4.473,0,0,0,2.2-.5A2.139,2.139,0,0,0,55,7.6a2.139,2.139,0,0,0-.7-1.8,3.425,3.425,0,0,0-2.2-.5Z" fill="#fff"/>
      <path id="Path_43840" data-name="Path 43840" d="M79.4,14.3a9.879,9.879,0,0,1-2.1,3.2,9.451,9.451,0,0,1-3.1,2.1,9.375,9.375,0,0,1-3.6.8,8.988,8.988,0,0,1-3.6-.8,10.623,10.623,0,0,1-3.1-2.1,9.713,9.713,0,0,1-2.8-7,9.713,9.713,0,0,1,2.8-7A9.451,9.451,0,0,1,67,1.4,9.375,9.375,0,0,1,70.6.6a8.988,8.988,0,0,1,3.6.8,9.451,9.451,0,0,1,3.1,2.1,9.713,9.713,0,0,1,2.8,7A9.857,9.857,0,0,1,79.4,14.3ZM74.9,8.7a3.956,3.956,0,0,0-1-1.5,4.177,4.177,0,0,0-1.5-1.1,4.25,4.25,0,0,0-3.6,0,4.6,4.6,0,0,0-2.5,2.5,5.847,5.847,0,0,0-.4,1.9,3.425,3.425,0,0,0,.4,1.8,3.956,3.956,0,0,0,1,1.5,3.956,3.956,0,0,0,1.5,1,5.263,5.263,0,0,0,1.8.4,3.661,3.661,0,0,0,1.8-.4,4.177,4.177,0,0,0,1.5-1.1,6.527,6.527,0,0,0,1-1.5,5.55,5.55,0,0,0,0-3.6Z" fill="#fff"/>
    </g>
    <g id="Vice_logo-white" transform="translate(704.01 707.664)">
      <path id="Path_43841" data-name="Path 43841" d="M43.4,5.2c.5.6,1.8.6,2.5,1.1a15.469,15.469,0,0,0-3.1.6C43,6.4,43.2,5.8,43.4,5.2Z" fill="#fff"/>
      <path id="Path_43842" data-name="Path 43842" d="M36.6,7.4c-.3,1.3-.9,2.8-1.2,4.3,1.9,0,3.8-.4,5.8-.5a2.541,2.541,0,0,0,.5-1.3,2.5,2.5,0,0,1,.3,2.4c-2.9,0-5,2.4-7.9,2.4-1.3,0-2.4-.7-1.8-2.2.9-2,3-3.5,4.3-5.1" fill="#fff"/>
      <g id="Group_33337" data-name="Group 33337">
        <path id="Path_43843" data-name="Path 43843" d="M45.6,2.9c-.7,0-1.3.9-1.8,1.2h0c0-.4.3-.7.3-1.2-3.9-1.4-7.7.6-10.5,2.2A25.365,25.365,0,0,0,28,9.2a21.284,21.284,0,0,1,1.6-2.5c.6-.8,1.3-1.6,1.8-2.3-1.2-.3-2.3-.6-3.5-.9-1.7-.4-4-1-5.4-.2-.4.2-.7.8-1.1.8-.3,0-.8-.2-1.2-.2a13.962,13.962,0,0,0-4.1.2c-1.2.2-3.8.7-4.1,1.8-.2.7.3,1.5.2,2.2,0,.7-.8,1.7-1.1,2.2A4.363,4.363,0,0,1,9.5,12a14.741,14.741,0,0,1,.4-6c.2-1.2.7-2.3.3-3.5C9.1,2.3,8.1,3.2,7,3.7c-2.1.8-4.4,1.6-4.7,4A5.433,5.433,0,0,0,3,10.9a21.354,21.354,0,0,0,2.9,5.4c-.3.6-1,.7-1.1,1.5.3.5,1,.5,1.7.5a10.01,10.01,0,0,0,5-1.8c3.2-1.8,5.3-4.6,7.6-7.2A5.022,5.022,0,0,1,20.3,8c.5,2.3-.5,3.6-1.2,5.5-.3.7-1.1,3-.7,4.1.5,1.2,4.3,1.3,5.3.5.5-.4.7-1.3,1-1.8a8.818,8.818,0,0,0,.9-2c0,2.6,1.9,3.4,4,3.9,4.4,1.2,8.8-.9,11.2-2.4-.3,1.9.4,2.1,1.9,2.4,3.9.8,7.8-.1,10.9-.9,2.9-.7,5.2-1.2,5.6-4.1a3.2,3.2,0,0,0-2.4-.2c-2.3.3-4.6,1.5-7.7,1.3-.6,0-1.8-.2-1.9-.6-.1-.5.8-.9,1.6-1.1,2.3-.4,5.7,0,7.6-.7a2.679,2.679,0,0,0,1.9-2.4c0-.7-1-1.1-1.9-1.2-2.6-.2-4.4,1.3-7.1.8.3-.4.4-1.1.8-1.5a57.178,57.178,0,0,0,5.8.2,7.188,7.188,0,0,0,5.3-2.7c.1-.2.5-.3.4-.6C57.1,3.8,50.9,2,45.4,2.7h0ZM66,3.1a1.234,1.234,0,0,1-.4.8C64.2,5.6,62.7,7.7,60.8,9a4.713,4.713,0,0,1-.2,2.1,6.9,6.9,0,0,1,1.3,2,7.34,7.34,0,0,1-2.8,4.8c-1.4,1-3.3,1.4-5.5,2-4.2,1-11.1,1.9-14.3-.6-3.4,2-10.2,2.3-13.4-.1-2.3,2.9-11.1,2.6-9.8-3.1a30.42,30.42,0,0,1-6.4,4c-2.7,1.1-7.8,1-7.3-2.8,0-.5.3-.7.5-1.1a24.15,24.15,0,0,1-1.8-3.6C.8,11.4,0,10.1,0,8.5-.2,5.1,2.5,2.9,5.1,1.9,6.4,1.4,7.5.6,8.9.2c2-.6,3.7.5,3.8,2.4a17.842,17.842,0,0,1,8.2-1c2.4-1.9,7.2-.7,10.3.2a13.606,13.606,0,0,0,2.2.7c.4,0,1.2-.6,1.7-.8A14.247,14.247,0,0,1,43.3.2c.6.1,1.1.4,1.8.5A7.084,7.084,0,0,0,46.5.6C53.8.2,59.9,2.2,66.2,3.2" fill="#fff"/>
      </g>
    </g>
    <path id="mens-health-white" d="M90.9,20.3H86.3V19.2h.4c.4,0,.3-.4.3-.4V8.7c0-1.5-.6-1.3-.6-1.3a1.345,1.345,0,0,0-1.3,1.1V18.9a.294.294,0,0,0,.3.3h.3v1.1H81.3v-1h.3c.4,0,.3-.6.3-.6V2.3c0-.5-.6-.4-.6-.4h-.4V.9a24.957,24.957,0,0,0,4-.5V6.7h.2a3.085,3.085,0,0,1,2.7-1.4c2.1,0,2.1,2.7,2.1,2.7V18.9c0,.5.8.5.8.5v1h0ZM81.2,6.9H79V18.2s-.1.9.4.9.4-.9.4-.9V15.4h1.4v3c-.2,1-.9,2.1-3,2.1a2.207,2.207,0,0,1-2.4-1.6V6.9h-1V5.6h.9c1.4-1,2.1-3.8,2.1-3.8h1.1V5.6h2.2V7h0Zm-6,13.6H70.4V19.2h.4c.3,0,.3-.5.3-.5V2.4c0-.5-.4-.4-.4-.4h-.5V.7a24.993,24.993,0,0,0,4-.4V18.8c0,.4.5.4.5.4h.6v1.3h0Zm-5.1-1.2c-.2.8-.6,1.4-2.2,1.3a1.794,1.794,0,0,1-1.8-1.4h-.3a2.237,2.237,0,0,1-2.5,1.4c-2-.1-2.5-2.5-2.4-4.9,0-2.4,1.5-4,4.7-4.9V7.4s0-.7-1.1-.8-1.3.3-1.2.4c0,0,1.5.9,1.1,1.9a1.517,1.517,0,0,1-2.3.5,2.634,2.634,0,0,1,.6-3.5c1.5-1.1,5.8-1.2,6.1,2.1V18.7s.2.4.4,0V17.2h1a5.462,5.462,0,0,1,0,1.9h0Zm-6-5.6a16.148,16.148,0,0,0-.2,4.2.805.805,0,0,0,1,.8.822.822,0,0,0,.7-.6V12a2.387,2.387,0,0,0-1.5,1.7Zm-8.4-.9s.2,3.7.2,4.3.1,2,1.5,2A1.557,1.557,0,0,0,59,17.4V15.7h1.4c-.2,3.7-.6,5-3.9,5s-4.2-5.3-4-6.9c.2-1.7-.1-8.4,4.4-8.4s3.7,7.5,3.7,7.5H55.9Zm1-6.2c-1.1,0-1,1.3-1,1.3v3.5h1.8V8.1s.2-1.5-.9-1.5ZM51.6,2.5V18.7c0,.5.7.6.7.6h.5v1H46.9V19.2h.8a.49.49,0,0,0,.5-.5V11.1H44.6v7.7c0,.5.6.5.6.5h.7v1.1H40V19.2h.8c.4,0,.5-.5.5-.5V2.5c0-.7-.6-.5-.6-.5h-.6V.7h5.8V1.9h-.7a.49.49,0,0,0-.5.5V9.8h3.7V2.4c0-.5-.6-.5-.6-.5h-.7V.7h5.8V1.9h-.8c-.4,0-.3.6-.3.6h-.2Zm-11.7,14c-.2,2.9-1.5,4.4-3.7,4.2-1.8-.2-2.2-1.1-2.2-1.1s-.4,0-.3.2v.6H32.6V15.6h1.2s.1,3.5,1.5,3.6c1.4,0,2.4-.6,1.4-3.1,0,0-3.4-3.4-3.8-5s-.6-4.2,1.5-5.5c1.7-1,3.9.6,3.9.6V5.7h1V9.9H38.1S38,7.5,37.2,7c-.7-.5-2.5-.2-1.9,1.9s4.8,4.6,4.6,7.5h0ZM32,6.2l-.8-.7,1.4-1.6s-1.5-.8-1.3-2.1,3-1.6,3.2.2c.3,1.9-1.6,3.5-2.5,4.1h0Zm-.7,12.5a.49.49,0,0,0,.5.5H32v1.2H27.5V19.1h.4c.4,0,.4-.5.4-.5V9.2c0-.7.3-1.8-.8-1.8s-1.2,1.3-1.2,1.3V18.9c0,.4.5.5.5.5h.3v1.1H22.4V19.3H23c.4,0,.4-.5.4-.5V7.4c0-.6-.6-.4-.6-.4h-.5V5.6c.7,0,3.2-.2,3.7-.3s.4.5.4.5v.9a3.353,3.353,0,0,1,2.7-1.4,2.341,2.341,0,0,1,2.4,2.1V18.7Zm-8.9-5.9H17.7s.2,3.7.2,4.3.1,2,1.5,2A1.557,1.557,0,0,0,21,17.4V15.7h1.4c-.2,3.7-.6,5-3.9,5s-4.2-5.3-4-6.9c.2-1.7-.1-8.4,4.4-8.4s3.7,7.5,3.7,7.5h0ZM18.7,6.6c-1.1,0-1,1.3-1,1.3v3.5h1.8V8.1s.2-1.5-.9-1.5h.1ZM13.6,2.5v16a.585.585,0,0,0,.7.6h.3v1.2H8.8V19.1h.7c.7,0,.6-.8.6-.8V6.6l-3,13.8H5.5L2.8,6.5v12a.56.56,0,0,0,.8.6h.7v1.3H.1V19.2H.6c.7,0,.7-1,.7-1V2.6C1.3,1.8.6,2,.6,2H0V.7H4.9L7.5,12.3,10,.7h4.8V2h-.6a.588.588,0,0,0-.6.6h0Z" transform="translate(799 707.4)" fill="#fff" fill-rule="evenodd"/>
    <g id="the-economist-white" transform="translate(918.6 710.3)">
      <g id="Group_33338" data-name="Group 33338">
        <path id="Path_43844" data-name="Path 43844" d="M112.3,15.7v.7h4.9v-.7c-.9,0-1.3-.2-1.3-1.2V8.4a2.806,2.806,0,0,0-2.9-3A5.437,5.437,0,0,0,109.4,7,2.455,2.455,0,0,0,107,5.4,7.132,7.132,0,0,0,103.3,7V5.4a15.277,15.277,0,0,1-3.6.7v.6c1.1,0,1.3.6,1.3,1.6v6.1c0,.9-.4,1.2-1.2,1.2v.7h4.9v-.7c-1,0-1.3-.2-1.3-1.2V8.8a1.944,1.944,0,0,1,2.1-2.1c1.3,0,1.8.8,1.8,2v5.6c0,.9-.4,1.2-1.2,1.2v.7H111v-.7c-1,0-1.3-.2-1.3-1.2V8.7a1.944,1.944,0,0,1,2.1-2.1c1.3,0,1.8.8,1.8,2v5.6c0,.9-.4,1.2-1.2,1.2h0Z" fill="#fff"/>
        <path id="Path_43845" data-name="Path 43845" d="M118.5,15.7v.7h4.7v-.7c-1,0-1.2-.2-1.2-1.2V5.4a15.141,15.141,0,0,1-3.7.7v.6c1.1,0,1.3.6,1.3,1.6v6.1c0,.9-.3,1.2-1.1,1.2h0Z" fill="#fff"/>
        <path id="Path_43846" data-name="Path 43846" d="M119.4,2.3a1.473,1.473,0,0,0,1.5,1.5,1.417,1.417,0,0,0,1.5-1.5,1.5,1.5,0,0,0-3,0Z" fill="#fff"/>
        <path id="Path_43847" data-name="Path 43847" d="M88.4,11.2a4.969,4.969,0,0,0,5,5.3c2.7,0,5.1-2.9,5.1-5.8a5.238,5.238,0,0,0-5-5.4c-2.8,0-5.1,2.8-5.1,5.8h0Zm7.6.7c0,2.5-.8,3.9-2.3,3.9-2.7,0-2.8-4.1-2.8-5.7,0-2.5.8-3.9,2.3-3.9C95.9,6.2,96,10.3,96,11.9Z" fill="#fff"/>
        <path id="Path_43848" data-name="Path 43848" d="M136.5,16.6a4.208,4.208,0,0,0,3.1-1.2l-.3-.5a3.707,3.707,0,0,1-1.5.4c-.5,0-1.2-.3-1.2-1.4V7h3V5.9h-3V3.2h-.7c-.4,1.8-1.5,3-2.8,3.1v.6h1.2v7.3c0,1.4.4,2.3,2.2,2.3h0Z" fill="#fff"/>
        <path id="Path_43849" data-name="Path 43849" d="M82.3,15.7v.7h4.9v-.7c-.9,0-1.3-.2-1.3-1.2V8.4a2.782,2.782,0,0,0-3-3A5.508,5.508,0,0,0,79.3,7V5.4a15.277,15.277,0,0,1-3.6.7v.6c1.1,0,1.3.6,1.3,1.6v6.1c0,.9-.4,1.2-1.2,1.2v.7h4.9v-.7c-1,0-1.3-.2-1.3-1.2V8.5c0-1.1.8-1.8,2.1-1.8s1.9.7,1.9,2v5.6c0,.9-.4,1.2-1.2,1.2h0Z" fill="#fff"/>
        <path id="Path_43850" data-name="Path 43850" d="M14.5,15.7v.7h4.9v-.7c-1,0-1.3-.2-1.3-1.2V8.6c0-1.1.8-1.8,2.2-1.8s1.9.7,1.9,2v5.6c0,.9-.4,1.2-1.2,1.2v.7h4.9v-.7c-.9,0-1.3-.2-1.3-1.2V8.3a2.782,2.782,0,0,0-3-3A5.24,5.24,0,0,0,18,6.8V.4a15.141,15.141,0,0,1-3.7.7v.6c1.1,0,1.3.6,1.3,1.6V14.4c0,.9-.4,1.2-1.2,1.2h0Z" fill="#fff"/>
        <path id="Path_43851" data-name="Path 43851" d="M.4,4.4h.8c.4-1.9.7-2.6,2.5-2.6H4.8c.5,0,.7.1.7.7V14.1c0,.9-.7,1.3-1.9,1.6v.7h6.5v-.7c-1.2-.2-1.9-.6-1.9-1.6V2.5c0-.5.2-.7.7-.7H10c1.8,0,2.1.7,2.5,2.6h.8V.9H.4Z" fill="#fff"/>
        <path id="Path_43852" data-name="Path 43852" d="M36,14.1l-.5-.5a4.268,4.268,0,0,1-3,1.4c-2.5,0-3.4-1.6-3.4-4.1v-.4h7c.2-2.8-1.4-5-4.1-5s-5.2,2.6-5.2,6,1.7,5.1,4.6,5.1A4.7,4.7,0,0,0,36,14.1ZM31.7,6.3c1.2,0,2.1,1,1.9,3.3H29.2c.1-2.3,1.1-3.3,2.5-3.3Z" fill="#fff"/>
        <path id="Path_43853" data-name="Path 43853" d="M132.1,13.1c0-1.3-.7-2.1-2.2-2.9l-1.8-.9a1.747,1.747,0,0,1-1.2-1.7A1.634,1.634,0,0,1,128.7,6c1,0,1.9,1.1,2.3,2h.6V5.8a8.082,8.082,0,0,0-2.7-.5c-2.1,0-4.1,1.2-4.1,3.4s.7,2.3,1.9,2.8l1.6.8c1,.5,1.5.9,1.5,1.8a1.79,1.79,0,0,1-1.9,1.6c-1.6,0-2.1-1.2-2.5-2.7h-.7v2.8a8,8,0,0,0,3.2.7c2.5,0,4.1-1.4,4.1-3.4h0Z" fill="#fff"/>
        <path id="Path_43854" data-name="Path 43854" d="M74.6,10.8c0-3.4-2.2-5.4-5-5.4s-5.1,2.8-5.1,5.8a5.15,5.15,0,0,0,5,5.3c2.7,0,5.1-2.9,5.1-5.8h0ZM67,10c0-2.5.8-3.9,2.3-3.9,2.7,0,2.8,4.1,2.8,5.7,0,2.5-.8,3.9-2.3,3.9-2.7,0-2.8-4.1-2.8-5.7Z" fill="#fff"/>
        <path id="Path_43855" data-name="Path 43855" d="M63.5,14.1l-.5-.5A4.268,4.268,0,0,1,60,15c-2.1,0-3.3-1.7-3.3-4.3s.7-4.4,2.3-4.4,1.6,2.1,2.9,2.1,1.2-.5,1.2-1.2c0-1-1.3-1.7-3.1-1.7-3.4,0-5.6,2.4-5.6,6s1.7,5.1,4.5,5.1a4.813,4.813,0,0,0,4.6-2.5h0Z" fill="#fff"/>
        <path id="Path_43856" data-name="Path 43856" d="M52.9,12.3H52c-.6,2.4-1,3.2-3.5,3.2h-.9c-1.4,0-1.8-.4-1.8-1.4V8.8H48c1.1.1,1.5.4,1.7,2h.8V5.9h-.8c-.2,1.6-.6,1.9-1.7,2H45.8V3.3c0-1,.4-1.4,1.6-1.4H49c1.8,0,2.1.7,2.5,2.6h.8V.9H41.5v.7c1.1.2,1.7.6,1.7,1.5v11c0,.9-.5,1.3-1.8,1.6v.7H52.5l.4-4.1h0Z" fill="#fff"/>
      </g>
    </g>
  </g>
</svg>
