<svg xmlns="http://www.w3.org/2000/svg" width="14" height="16" viewBox="0 0 14 16">
  <path id="Icon_fa-solid-user-doctor" data-name="Icon fa-solid-user-doctor" d="M7,8A4,4,0,1,0,3,4,4,4,0,0,0,7,8ZM4,9.725a5.573,5.573,0,0,0-4,5.347A.928.928,0,0,0,.928,16H13.072A.928.928,0,0,0,14,15.072a5.573,5.573,0,0,0-4-5.347v1.587a2,2,0,0,1,1.5,1.938V14.5a.5.5,0,0,1-.5.5h-.5a.5.5,0,0,1,0-1v-.75a1,1,0,0,0-2,0V14a.5.5,0,0,1,0,1H8a.5.5,0,0,1-.5-.5V13.25A2,2,0,0,1,9,11.313V9.528Q8.719,9.5,8.428,9.5H5.572q-.291,0-.572.028v2.044a1.75,1.75,0,1,1-1,0V9.725ZM4.5,14a.75.75,0,1,0-.75-.75A.75.75,0,0,0,4.5,14Z" fill="#add3ff"/>
</svg>
