<svg xmlns="http://www.w3.org/2000/svg" width="16" height="16" viewBox="0 0 16 16">
  <path id="Icon_fa-solid-square-check" data-name="Icon fa-solid-square-check" d="M2.286,2.25A2.288,2.288,0,0,0,0,4.536V15.964A2.288,2.288,0,0,0,2.286,18.25H13.714A2.288,2.288,0,0,0,16,15.964V4.536A2.288,2.288,0,0,0,13.714,2.25Zm9.75,6.321L7.464,13.143a.854.854,0,0,1-1.211,0L3.968,10.857A.856.856,0,1,1,5.179,9.646l1.679,1.679,3.964-3.968a.856.856,0,0,1,1.211,1.211Z" transform="translate(0 -2.25)" fill="#add3ff"/>
</svg>
